SplineFontDB: 3.0
FontName: GOST2930-62
FullName: GOST 2930-62
FamilyName: GOST 2930-62
Weight: Book
Copyright: 
Version: 1.00
ItalicAngle: 0
UnderlinePosition: -200
UnderlineWidth: 100
Ascent: 800
Descent: 200
InvalidEm: 0
sfntRevision: 0x00010000
LayerCount: 2
Layer: 0 0 "+BBcEMAQ0BD0EOAQ5 +BD8EOwQwBD0A" 1
Layer: 1 0 "+BB8ENQRABDUENAQ9BDgEOQAA +BD8EOwQwBD0A" 0
XUID: [1021 200 1631105240 8228]
StyleMap: 0x0000
FSType: 8
OS2Version: 1
OS2_WeightWidthSlopeOnly: 0
OS2_UseTypoMetrics: 0
CreationTime: 1115562651
ModificationTime: 1506251439
PfmFamily: 17
TTFWeight: 400
TTFWidth: 5
LineGap: 467
VLineGap: 0
Panose: 2 0 0 0 0 0 0 0 0 0
OS2TypoAscent: 800
OS2TypoAOffset: 0
OS2TypoDescent: -300
OS2TypoDOffset: 0
OS2TypoLinegap: 137
OS2WinAscent: 1200
OS2WinAOffset: 0
OS2WinDescent: 300
OS2WinDOffset: 0
HheadAscent: 1000
HheadAOffset: 0
HheadDescent: 0
HheadDOffset: 0
OS2SubXSize: 0
OS2SubYSize: 0
OS2SubXOff: 0
OS2SubYOff: 0
OS2SupXSize: 0
OS2SupYSize: 0
OS2SupXOff: 0
OS2SupYOff: 0
OS2StrikeYSize: 67
OS2StrikeYPos: 400
OS2Vendor: 'GOST'
OS2CodePages: 4000001f.d6030000
OS2UnicodeRanges: a00002af.500078fb.00000000.00000000
MarkAttachClasses: 1
DEI: 91125
ShortTable: maxp 16
  1
  0
  203
  72
  5
  0
  0
  2
  16
  47
  66
  0
  1036
  0
  0
  0
EndShort
LangName: 1033 "" "" "Regular"
Encoding: UnicodeBmp
UnicodeInterp: none
NameList: AGL For New Fonts
DisplaySize: -48
AntiAlias: 1
FitToEm: 0
WinInfo: 972 27 9
BeginPrivate: 0
EndPrivate
BeginChars: 65537 178

StartChar: .notdef
Encoding: 65536 -1 0
Width: 802
VWidth: 1365
Flags: HW
LayerCount: 2
Fore
SplineSet
0 0 m 1
 0 853 l 1
 682 853 l 1
 682 0 l 1
 0 0 l 1
21 21 m 1
 661 21 l 1
 661 832 l 1
 21 832 l 1
 21 21 l 1
EndSplineSet
EndChar

StartChar: quotedbl
Encoding: 34 34 1
Width: 324
VWidth: 1365
Flags: W
HStem: 720 160<129 141 237 249>
VStem: 129 54<854.545 880>
LayerCount: 2
Fore
SplineSet
-21 720 m 1
 21 880 l 1
 75 880 l 1
 76 879 l 1
 77 879 l 1
 33 720 l 1
 -21 720 l 1
183 880 m 1
 183 879 l 1
 141 720 l 1
 85 720 l 1
 129 880 l 1
 183 880 l 1
EndSplineSet
EndChar

StartChar: percent
Encoding: 37 37 2
Width: 641
VWidth: 1365
Flags: W
HStem: 0 52<310.674 409.326> 189 51<310.856 409.144> 560 52<70.856 169.144> 748 52<70.856 169.144>
VStem: 0 52<630.856 729.144> 188 52<630.856 729.144> 240 52<70.9128 169.644> 428 52<70.9128 169.644>
LayerCount: 2
Fore
SplineSet
0 0 m 1xf9
 462 800 l 1
 522 800 l 1
 60 0 l 1
 0 0 l 1xf9
0 680 m 256
 0 746 54 800 120 800 c 256
 186 800 240 746 240 680 c 256xfd
 240 614 186 560 120 560 c 256
 54 560 0 614 0 680 c 256
52 680 m 0
 52 643 83 612 120 612 c 256
 157 612 188 643 188 680 c 0
 188 717 157 748 120 748 c 0
 83 748 52 717 52 680 c 0
240 120 m 256xfb
 240 186 294 240 360 240 c 256
 426 240 480 186 480 120 c 256
 480 54 426 0 360 0 c 256
 294 0 240 54 240 120 c 256xfb
292 121 m 0
 292 83 322 52 360 52 c 256
 398 52 428 83 428 121 c 0
 428 158 397 189 360 189 c 0
 323 189 292 158 292 121 c 0
EndSplineSet
EndChar

StartChar: quotesingle
Encoding: 39 39 3
Width: 217
VWidth: 1365
Flags: W
HStem: 720 160<21 33>
VStem: -21 96
LayerCount: 2
Fore
SplineSet
-21 720 m 1
 21 880 l 1
 75 880 l 1
 76 879 l 1
 77 879 l 1
 33 720 l 1
 -21 720 l 1
EndSplineSet
EndChar

StartChar: asterisk
Encoding: 42 42 4
Width: 495
VWidth: 1365
Flags: W
LayerCount: 2
Fore
SplineSet
0 251 m 1
 149 400 l 1
 0 549 l 1
 39 588 l 1
 188 439 l 1
 337 588 l 1
 376 549 l 1
 227 400 l 1
 376 251 l 1
 337 212 l 1
 188 361 l 1
 39 212 l 1
 0 251 l 1
EndSplineSet
EndChar

StartChar: plus
Encoding: 43 43 5
Width: 600
VWidth: 1365
Flags: W
HStem: 374 52<0 214 266 480>
VStem: 214 52<160 374 426 640>
LayerCount: 2
Fore
SplineSet
0 374 m 1
 0 426 l 1
 214 426 l 1
 214 640 l 1
 266 640 l 1
 266 426 l 1
 480 426 l 1
 480 374 l 1
 266 374 l 1
 266 160 l 1
 214 160 l 1
 214 374 l 1
 0 374 l 1
EndSplineSet
EndChar

StartChar: comma
Encoding: 44 44 6
Width: 120
VWidth: 1365
Flags: W
HStem: 0 104<-41.1642 0>
VStem: 0 52<-25.1362 0>
LayerCount: 2
Fore
SplineSet
-104 -104 m 1
 -46 -104 0 -58 0 0 c 1
 -27 0 -52 25 -52 52 c 0
 -52 79 -27 104 0 104 c 256
 27 104 52 79 52 52 c 0
 52 -33 -19 -104 -104 -104 c 1
EndSplineSet
EndChar

StartChar: hyphen
Encoding: 45 45 7
AltUni2: 0000ad.ffffffff.0
Width: 600
VWidth: 1365
Flags: W
HStem: 374 52<0 480>
LayerCount: 2
Fore
SplineSet
0 374 m 1
 0 426 l 1
 480 426 l 1
 480 374 l 1
 0 374 l 1
EndSplineSet
EndChar

StartChar: period
Encoding: 46 46 8
Width: 120
VWidth: 1365
Flags: W
HStem: 0 104<-42.0461 42.0461>
VStem: -52 104<9.51529 94.7637>
LayerCount: 2
Fore
SplineSet
-52 52 m 256
 -52 82 -30 104 0 104 c 256
 30 104 52 82 52 52 c 256
 52 23 29 0 0 0 c 256
 -29 0 -52 23 -52 52 c 256
EndSplineSet
EndChar

StartChar: slash
Encoding: 47 47 9
Width: 521
VWidth: 1365
Flags: W
HStem: 0 21G<-70 1.55> 780 20G<380.45 452>
LayerCount: 2
Fore
SplineSet
-70 0 m 1
 392 800 l 1
 452 800 l 1
 -10 0 l 1
 -70 0 l 1
EndSplineSet
EndChar

StartChar: zero
Encoding: 48 48 10
Width: 600
VWidth: 1365
Flags: W
HStem: 0 100<168.191 311.809> 700 100<168.191 311.809>
VStem: 0 100<168.835 631.165> 380 100<168.835 631.165>
LayerCount: 2
Fore
SplineSet
240 0 m 256
 108 0 0 108 0 240 c 2
 0 560 l 2
 0 692 108 800 240 800 c 256
 372 800 480 692 480 560 c 2
 480 240 l 2
 480 108 372 0 240 0 c 256
100 240 m 2
 100 163 163 100 240 100 c 256
 317 100 380 163 380 240 c 2
 380 560 l 2
 380 637 317 700 240 700 c 256
 163 700 100 637 100 560 c 2
 100 240 l 2
EndSplineSet
EndChar

StartChar: one
Encoding: 49 49 11
Width: 326
VWidth: 1365
Flags: W
HStem: 0 21G<107 207> 563 101<0 45.9789> 780 20G<107 207>
VStem: 107 100<0 605 726.686 800>
LayerCount: 2
Fore
SplineSet
0 664 m 1
 54 677 107 729 107 800 c 1
 207 800 l 1
 207 0 l 1
 107 0 l 1
 107 605 l 1
 75 582 39 568 0 563 c 1
 0 664 l 1
EndSplineSet
EndChar

StartChar: two
Encoding: 50 50 12
Width: 600
VWidth: 1365
Flags: HW
HStem: 0 100<117 480> 700 100<167.376 311.809>
VStem: 0 100<556 633.823> 380 100<486.02 631.809>
LayerCount: 2
Fore
SplineSet
240 800 m 259
 372 800 480 692 480 560 c 259
 480 494 457 437 410 390 c 1
 188 212 l 2
 153 184 132 143 117 100 c 1
 480 100 l 1
 480 0 l 1
 0 0 l 1
 0 128 60 241 154 315 c 2
 339 461 l 1
 366 488 380 521 380 560 c 3
 380 637 317 700 240 700 c 259
 161 700 100 636 100 556 c 1
 0 556 l 1
 0 691 106 800 240 800 c 259
EndSplineSet
EndChar

StartChar: three
Encoding: 51 51 13
Width: 600
VWidth: 1365
Flags: HW
HStem: 0 100<168.191 311.809> 700 100<52 281>
VStem: 0 100<168.835 240> 380 100<168.835 412.453>
LayerCount: 2
Fore
SplineSet
480 240 m 2
 480 108 372 0 240 0 c 256
 108 0 0 108 0 240 c 1
 100 240 l 1
 100 163 163 100 240 100 c 256
 317 100 380 163 380 240 c 2
 380 340 l 2
 380 417 317 480 240 480 c 256
 199 480 166 464 138 436 c 1
 90 527 l 1
 281 700 l 1
 0 700 l 1
 52 800 l 1
 430 800 l 1
 430 700 l 1
 291 575 l 1
 389.432604749 553.601607663 480 465.073036388 480 340 c 2
 480 240 l 2
EndSplineSet
EndChar

StartChar: four
Encoding: 52 52 14
Width: 600
VWidth: 1365
Flags: W
HStem: 0 21G<330 430> 190 100<119 330 430 480> 780 20G<317.059 430>
VStem: 330 100<0 190 290 616>
LayerCount: 2
Fore
SplineSet
0 190 m 1
 0 290 l 1
 330 800 l 1
 430 800 l 1
 430 290 l 1
 480 290 l 1
 480 190 l 1
 430 190 l 1
 430 0 l 1
 330 0 l 1
 330 190 l 1
 0 190 l 1
330 290 m 1
 330 616 l 1
 119 290 l 1
 330 290 l 1
EndSplineSet
EndChar

StartChar: five
Encoding: 53 53 15
Width: 600
VWidth: 1365
Flags: W
HStem: 0 100<168.191 311.809> 500 100<154.921 311.809> 700 100<100 430>
VStem: 0 100<168.835 240 555 700> 380 100<168.835 431.165>
LayerCount: 2
Fore
SplineSet
480 240 m 2
 480 108 372 0 240 0 c 256
 108 0 0 108 0 240 c 1
 100 240 l 1
 100 163 163 100 240 100 c 256
 317 100 380 163 380 240 c 2
 380 360 l 2
 380 437 317 500 240 500 c 0
 214 500 190 493 168 480 c 1
 0 480 l 1
 0 800 l 1
 430 800 l 1
 430 700 l 1
 100 700 l 1
 100 555 l 1
 142 585 189 600 240 600 c 0
 372 600 480 492 480 360 c 2
 480 240 l 2
EndSplineSet
EndChar

StartChar: six
Encoding: 54 54 16
Width: 600
VWidth: 1365
Flags: W
HStem: 0 100<168.191 311.809> 400 100<167.086 311.809> 700 100<168.191 316.562>
VStem: 0 100<168.835 332.453 455 631.165> 380 100<168.835 331.165>
LayerCount: 2
Fore
SplineSet
240 0 m 256
 108 0 0 108 0 240 c 2
 0 560 l 2
 0 692 108 800 240 800 c 256
 306 800 359 780 398 741 c 0
 437 702 462 660 473 616 c 1
 368 616 l 1
 350 658 308 700 240 700 c 256
 163 700 100 637 100 560 c 2
 100 455 l 1
 142 485 189 500 240 500 c 0
 372 500 480 392 480 260 c 2
 480 240 l 2
 480 108 372 0 240 0 c 256
100 240 m 2
 100 163 163 100 240 100 c 256
 317 100 380 163 380 240 c 2
 380 260 l 2
 380 337 317 400 240 400 c 256
 163 400 100 337 100 260 c 2
 100 240 l 2
EndSplineSet
EndChar

StartChar: seven
Encoding: 55 55 17
Width: 600
VWidth: 1365
Flags: HW
HStem: 0 21G<50 150> 700 100<0 384>
VStem: 50 100<0 229.349>
LayerCount: 2
Fore
SplineSet
0 700 m 1
 0 800 l 1
 480 800 l 1
 480 647 l 2
 290 470 l 2
 194 380 150 221 150 0 c 1
 50 0 l 1
 50 249 97 425 198 522 c 2
 384 700 l 1
 0 700 l 1
EndSplineSet
EndChar

StartChar: eight
Encoding: 56 56 18
Width: 600
VWidth: 1365
Flags: W
HStem: 0 100<167.655 311.087> 380 40<170.456 309.544> 700 100<168.913 312.345>
VStem: 0 100<168.377 312.884 487.27 631.995> 380 100<168.005 312.884 487.27 631.623>
CounterMasks: 1 e0
LayerCount: 2
Fore
SplineSet
238 0 m 0
 108 0 0 109 0 240 c 0
 0 301 20 355 61 400 c 1
 20 446 0 499 0 560 c 0
 0 693 109 800 242 800 c 0
 372 800 480 691 480 560 c 0
 480 499 460 446 419 400 c 1
 460 355 480 301 480 240 c 0
 480 107 371 0 238 0 c 0
100 240 m 0
 100 163 163 100 240 100 c 0
 317 100 380 163 380 240 c 0
 380 317 317 380 240 380 c 0
 163 380 100 317 100 240 c 0
100 560 m 0
 100 483 163 420 240 420 c 0
 317 420 380 483 380 560 c 0
 380 637 317 700 240 700 c 0
 163 700 100 637 100 560 c 0
EndSplineSet
EndChar

StartChar: colon
Encoding: 58 58 20
Width: 120
VWidth: 1365
Flags: W
HStem: 0 104<-42.0461 42.0461> 696 104<-42.4847 42.4847>
VStem: -52 104<9.51529 94.7637 705.515 790.485>
LayerCount: 2
Fore
SplineSet
-52 52 m 256
 -52 82 -30 104 0 104 c 256
 30 104 52 82 52 52 c 256
 52 23 29 0 0 0 c 256
 -29 0 -52 23 -52 52 c 256
-52 748 m 256
 -52 777 -29 800 0 800 c 256
 29 800 52 777 52 748 c 256
 52 719 29 696 0 696 c 256
 -29 696 -52 719 -52 748 c 256
EndSplineSet
EndChar

StartChar: semicolon
Encoding: 59 59 21
AltUni2: 00037e.ffffffff.0
Width: 120
VWidth: 1365
Flags: W
HStem: 0 104<-41.1642 0> 696 104<-42.4847 42.4847>
VStem: -52 104<13.3991 93.1642 705.515 790.485> 0 52<-25.1362 0>
LayerCount: 2
Fore
SplineSet
-104 -104 m 1xe0
 -46 -104 0 -58 0 0 c 1xd0
 -27 0 -52 25 -52 52 c 0xe0
 -52 79 -27 104 0 104 c 256xd0
 27 104 52 79 52 52 c 0
 52 -33 -19 -104 -104 -104 c 1xe0
-52 748 m 256xe0
 -52 777 -29 800 0 800 c 256xd0
 29 800 52 777 52 748 c 256xe0
 52 719 29 696 0 696 c 256xd0
 -29 696 -52 719 -52 748 c 256xe0
EndSplineSet
EndChar

StartChar: less
Encoding: 60 60 22
Width: 600
VWidth: 1365
Flags: W
LayerCount: 2
Fore
SplineSet
0 400 m 1
 480 640 l 1
 480 582 l 1
 116 400 l 1
 480 218 l 1
 480 160 l 1
 0 400 l 1
EndSplineSet
EndChar

StartChar: equal
Encoding: 61 61 23
Width: 600
VWidth: 1365
Flags: W
HStem: 296 52<0 480> 452 52<0 480>
LayerCount: 2
Fore
SplineSet
0 296 m 1
 0 348 l 1
 480 348 l 1
 480 296 l 1
 0 296 l 1
0 452 m 1
 0 504 l 1
 480 504 l 1
 480 452 l 1
 0 452 l 1
EndSplineSet
EndChar

StartChar: A
Encoding: 65 65 25
Width: 600
VWidth: 1365
Flags: W
HStem: 0 21G<0 107.79 372.21 480> 167 100<166 314> 780 20G<185.25 294.75>
LayerCount: 2
Fore
SplineSet
0 0 m 1
 190 800 l 1
 290 800 l 1
 480 0 l 1
 377 0 l 1
 337 167 l 1
 143 167 l 1
 103 0 l 1
 0 0 l 1
166 267 m 1
 314 267 l 1
 240 578 l 1
 166 267 l 1
EndSplineSet
EndChar

StartChar: B
Encoding: 66 66 26
Width: 600
VWidth: 1365
Flags: W
HStem: 0 100<100 311.165> 400 100<100 312.453> 700 100<100 338.874>
VStem: 0 100<100 400 500 700> 380 100<168.835 332.453 541.108 659.089>
LayerCount: 2
Fore
SplineSet
480 240 m 2
 480 108 372 0 240 0 c 2
 0 0 l 1
 0 800 l 1
 280 800 l 2
 389 800 480 710 480 600 c 256
 480 545 454 491 401 438 c 1
 454 385 480 326 480 260 c 2
 480 240 l 2
100 100 m 1
 240 100 l 2
 317 100 380 163 380 240 c 2
 380 260 l 2
 380 337 317 400 240 400 c 2
 100 400 l 1
 100 100 l 1
100 500 m 1
 280 500 l 2
 333 500 380 547 380 600 c 0
 380 653 333 700 280 700 c 2
 100 700 l 1
 100 500 l 1
EndSplineSet
EndChar

StartChar: C
Encoding: 67 67 27
Width: 600
VWidth: 1365
Flags: HW
HStem: 0 100<168.191 311.809> 700 100<168.191 311.809>
VStem: 0 100<168.835 631.165> 380 100<168.835 240 560 631.165>
LayerCount: 2
Fore
SplineSet
240 0 m 259
 108 0 0 108 0 240 c 2
 0 560 l 2
 0 692 108 800 240 800 c 259
 372 800 480 692 480 560 c 1
 380 560 l 1
 380 637 317 700 240 700 c 259
 163 700 100 637 100 560 c 2
 100 240 l 2
 100 163 163 100 240 100 c 259
 317 100 380 163 380 240 c 1
 480 240 l 1
 480 108 372 0 240 0 c 259
EndSplineSet
EndChar

StartChar: D
Encoding: 68 68 28
Width: 600
VWidth: 1365
Flags: W
HStem: 0 100<100 311.165> 700 100<100 311.165>
VStem: 0 100<100 700> 380 100<168.835 631.165>
LayerCount: 2
Fore
SplineSet
480 240 m 2
 480 108 372 0 240 0 c 2
 0 0 l 1
 0 800 l 1
 240 800 l 2
 372 800 480 692 480 560 c 2
 480 240 l 2
100 100 m 1
 240 100 l 2
 317 100 380 163 380 240 c 2
 380 560 l 2
 380 637 317 700 240 700 c 2
 100 700 l 1
 100 100 l 1
EndSplineSet
EndChar

StartChar: E
Encoding: 69 69 29
Width: 600
VWidth: 1365
Flags: W
HStem: 0 100<100 480> 400 100<100 380> 700 100<100 430>
VStem: 0 100<100 400 500 700>
LayerCount: 2
Fore
SplineSet
0 0 m 1
 0 800 l 1
 430 800 l 1
 430 700 l 1
 100 700 l 1
 100 500 l 1
 380 500 l 1
 380 400 l 1
 100 400 l 1
 100 100 l 1
 480 100 l 1
 480 0 l 1
 0 0 l 1
EndSplineSet
EndChar

StartChar: F
Encoding: 70 70 30
Width: 600
VWidth: 1365
Flags: W
HStem: 0 21G<0 100> 400 100<100 320> 700 100<100 480>
VStem: 0 100<0 400 500 700>
LayerCount: 2
Fore
SplineSet
0 0 m 1
 0 800 l 1
 480 800 l 1
 480 700 l 1
 100 700 l 1
 100 500 l 1
 320 500 l 1
 320 400 l 1
 100 400 l 1
 100 0 l 1
 0 0 l 1
EndSplineSet
EndChar

StartChar: G
Encoding: 71 71 31
Width: 600
VWidth: 1365
Flags: HW
HStem: 0 100<168.191 311.809> 300 100<296 380> 700 100<168.191 311.809>
VStem: 0 100<168.835 631.165> 296 184<300 400> 380 100<168.835 300 560 631.165>
LayerCount: 2
Fore
SplineSet
240 0 m 259xf4
 108 0 0 108 0 240 c 2
 0 560 l 2
 0 692 108 800 240 800 c 259
 372 800 480 692 480 560 c 1
 380 560 l 1
 380 637 317 700 240 700 c 259
 163 700 100 637 100 560 c 2
 100 240 l 2
 100 163 163 100 240 100 c 259
 317 100 380 163 380 240 c 2
 380 300 l 1xf4
 296 300 l 1
 296 400 l 1
 480 400 l 1xf8
 480 240 l 2
 480 108 372 0 240 0 c 259xf4
EndSplineSet
EndChar

StartChar: H
Encoding: 72 72 32
Width: 600
VWidth: 1365
Flags: W
HStem: 0 21G<0 100 380 480> 400 100<100 380> 780 20G<0 100 380 480>
VStem: 0 100<0 400 500 800> 380 100<0 400 500 800>
LayerCount: 2
Fore
SplineSet
0 0 m 1
 0 800 l 1
 100 800 l 1
 100 500 l 1
 380 500 l 1
 380 800 l 1
 480 800 l 1
 480 0 l 1
 380 0 l 1
 380 400 l 1
 100 400 l 1
 100 0 l 1
 0 0 l 1
EndSplineSet
EndChar

StartChar: I
Encoding: 73 73 33
Width: 220
VWidth: 1365
Flags: W
HStem: 0 21G<0 100> 780 20G<0 100>
VStem: 0 100<0 800>
LayerCount: 2
Fore
SplineSet
0 0 m 1
 0 800 l 1
 100 800 l 1
 100 0 l 1
 0 0 l 1
EndSplineSet
EndChar

StartChar: J
Encoding: 74 74 34
Width: 360
VWidth: 1365
Flags: W
HStem: 0 100<0 131.811> 700 100<0 140>
VStem: 140 100<108.189 700>
LayerCount: 2
Fore
SplineSet
0 0 m 1
 0 100 l 1
 96 100 l 2
 121 100 140 119 140 144 c 2
 140 700 l 1
 0 700 l 1
 0 800 l 1
 240 800 l 1
 240 144 l 2
 240 65 175 0 96 0 c 2
 0 0 l 1
EndSplineSet
EndChar

StartChar: K
Encoding: 75 75 35
Width: 600
VWidth: 1365
Flags: HW
HStem: 0 21G<0 100 366.857 480> 780 20G<0 100 342.762 480>
VStem: 0 100<0 267 439 800>
LayerCount: 2
Fore
SplineSet
0 0 m 1
 0 800 l 1
 100 800 l 1
 100 439 l 1
 357 800 l 1
 480 800 l 1
 290 532 l 1
 480 0 l 1
 374 0 l 1
 219 434 l 1
 100 267 l 1
 100 0 l 1
 0 0 l 1
EndSplineSet
EndChar

StartChar: L
Encoding: 76 76 36
Width: 600
VWidth: 1365
Flags: W
HStem: 0 100<100 480> 780 20G<0 100>
VStem: 0 100<100 800>
LayerCount: 2
Fore
SplineSet
0 0 m 1
 0 800 l 1
 100 800 l 1
 100 100 l 1
 480 100 l 1
 480 0 l 1
 0 0 l 1
EndSplineSet
EndChar

StartChar: M
Encoding: 77 77 37
Width: 840
VWidth: 1365
Flags: W
HStem: 0 21G<0 100 620 720> 780 20G<0 113 607 720>
VStem: 0 100<0 617> 620 100<0 617>
LayerCount: 2
Fore
SplineSet
0 0 m 1
 0 800 l 1
 100 800 l 1
 360 400 l 1
 620 800 l 1
 720 800 l 1
 720 0 l 1
 620 0 l 1
 620 617 l 1
 360 217 l 1
 100 617 l 1
 100 0 l 1
 0 0 l 1
EndSplineSet
EndChar

StartChar: N
Encoding: 78 78 38
Width: 600
VWidth: 1365
Flags: W
HStem: 0 21G<0 100 360.753 480> 780 20G<0 112.486 380 480>
VStem: 0 100<0 584> 380 100<216 800>
LayerCount: 2
Fore
SplineSet
0 0 m 1
 0 800 l 1
 103 800 l 1
 380 216 l 1
 380 800 l 1
 480 800 l 1
 480 0 l 1
 370 0 l 1
 100 584 l 1
 100 0 l 1
 0 0 l 1
EndSplineSet
EndChar

StartChar: P
Encoding: 80 80 40
Width: 600
VWidth: 1365
Flags: W
HStem: 0 21G<0 100> 300 100<100 311.165> 700 100<100 311.165>
VStem: 0 100<0 300 400 700> 380 100<468.835 631.165>
LayerCount: 2
Fore
SplineSet
480 540 m 2
 480 408 372 300 240 300 c 2
 100 300 l 1
 100 0 l 1
 0 0 l 1
 0 800 l 1
 240 800 l 2
 372 800 480 692 480 560 c 2
 480 540 l 2
100 400 m 1
 240 400 l 2
 317 400 380 463 380 540 c 2
 380 560 l 2
 380 637 317 700 240 700 c 2
 100 700 l 1
 100 400 l 1
EndSplineSet
EndChar

StartChar: Q
Encoding: 81 81 41
Width: 670
VWidth: 1365
Flags: HW
HStem: 0 100<168.191 312.26> 700 100<168.191 311.809>
VStem: 0 100<168.835 631.165> 380 100<327 631.165>
LayerCount: 2
Fore
SplineSet
240 0 m 259
 108 0 0 108 0 240 c 2
 0 560 l 2
 0 692 108 800 240 800 c 259
 372 800 480 692 480 560 c 2
 480 269 l 1
 550 229 l 1
 500 142 l 1
 467 161 l 1
 438 73 345 0 240 0 c 259
100 240 m 2
 100 163 163 100 240 100 c 259
 309 100 366 151 377 213 c 1
 310 251 l 1
 360 338 l 1
 380 327 l 1
 380 560 l 2
 380 637 317 700 240 700 c 259
 163 700 100 637 100 560 c 2
 100 240 l 2
EndSplineSet
EndChar

StartChar: R
Encoding: 82 82 42
Width: 600
VWidth: 1365
Flags: W
HStem: 0 21G<0 100 362.067 480> 300 100<100 237> 700 100<100 311.165>
VStem: 0 100<0 300 400 700> 380 100<468.781 631.165>
LayerCount: 2
Fore
SplineSet
480 540 m 2
 480 441 417 355 337 320 c 1
 480 0 l 1
 371 0 l 1
 237 300 l 1
 100 300 l 1
 100 0 l 1
 0 0 l 1
 0 800 l 1
 240 800 l 2
 372 800 480 692 480 560 c 2
 480 540 l 2
100 400 m 1
 240 400 l 2
 317 400 380 463 380 540 c 2
 380 560 l 2
 380 637 317 700 240 700 c 2
 100 700 l 1
 100 400 l 1
EndSplineSet
EndChar

StartChar: S
Encoding: 83 83 43
Width: 600
VWidth: 1365
Flags: HW
HStem: 0 104<163.237 316.763> 700 100<168.191 311.809>
VStem: 0 100<168.835 240 499.992 631.809> 380 100<167.301 300.008 560 631.165>
LayerCount: 2
Fore
SplineSet
480 240 m 3
 480 108 372 0 240 0 c 259
 108 0 0 108 0 240 c 1
 100 240 l 1
 100 168 157 104 230 104 c 2
 252 104 l 2
 324 104 380 169 380 240 c 3
 380 291 341 330 298 338 c 2
 163 363 l 1
 78 378 0 456 0 560 c 3
 0 692 108 800 240 800 c 259
 372 800 480 692 480 560 c 1
 380 560 l 1
 380 637 317 700 240 700 c 259
 163 700 100 637 100 560 c 3
 100 509 139 470 182 462 c 2
 317 437 l 1
 402 422 480 344 480 240 c 3
EndSplineSet
EndChar

StartChar: T
Encoding: 84 84 44
Width: 600
VWidth: 1365
Flags: W
HStem: 0 21G<190 290> 700 100<0 190 290 480>
VStem: 190 100<0 700>
LayerCount: 2
Fore
SplineSet
0 700 m 1
 0 800 l 1
 480 800 l 1
 480 700 l 1
 290 700 l 1
 290 0 l 1
 190 0 l 1
 190 700 l 1
 0 700 l 1
EndSplineSet
EndChar

StartChar: U
Encoding: 85 85 45
Width: 600
VWidth: 1365
Flags: HW
HStem: 0 100<168.191 311.809> 780 20G<0 100 380 480>
VStem: 0 100<168.835 800> 380 100<168.835 800>
LayerCount: 2
Fore
SplineSet
240 0 m 259
 108 0 0 108 0 240 c 2
 0 800 l 1
 100 800 l 1
 100 240 l 2
 100 163 163 100 240 100 c 259
 317 100 380 163 380 240 c 2
 380 800 l 1
 480 800 l 1
 480 240 l 2
 480 108 372 0 240 0 c 259
EndSplineSet
EndChar

StartChar: V
Encoding: 86 86 46
Width: 600
VWidth: 1365
Flags: W
HStem: 0 21G<185.25 294.75> 780 20G<0 107.74 372.26 480>
LayerCount: 2
Fore
SplineSet
0 800 m 1
 103 800 l 1
 240 222 l 1
 377 800 l 1
 480 800 l 1
 290 0 l 1
 190 0 l 1
 0 800 l 1
EndSplineSet
EndChar

StartChar: W
Encoding: 87 87 47
Width: 840
VWidth: 1365
Flags: W
HStem: 0 21G<117 282.14 437.86 603> 780 20G<0 104.009 615.991 720>
LayerCount: 2
Fore
SplineSet
0 800 m 1
 101 800 l 1
 200 142 l 1
 283 700 l 1
 437 700 l 1
 520 142 l 1
 619 800 l 1
 720 800 l 1
 600 0 l 1
 441 0 l 1
 360 516 l 1
 279 0 l 1
 120 0 l 1
 0 800 l 1
EndSplineSet
EndChar

StartChar: X
Encoding: 88 88 48
Width: 600
VWidth: 1365
Flags: HW
HStem: 0 21G<0 112.751 360.747 480> 780 20G<2 112.751 360.747 480>
LayerCount: 2
Fore
SplineSet
0 0 m 1
 185 400 l 1
 2 800 l 1
 103 800 l 1
 240 519 l 1
 370 800 l 1
 480 800 l 1
 295 400 l 1
 480 0 l 1
 370 0 l 1
 240 281 l 1
 103 0 l 1
 0 0 l 1
EndSplineSet
EndChar

StartChar: Y
Encoding: 89 89 49
Width: 600
VWidth: 1365
Flags: W
HStem: 0 21G<190 290> 780 20G<0 113.109 366.891 480>
VStem: 190 100<0 267>
LayerCount: 2
Fore
SplineSet
290 0 m 1
 190 0 l 1
 190 267 l 1
 0 800 l 1
 106 800 l 1
 240 423 l 1
 374 800 l 1
 480 800 l 1
 290 267 l 1
 290 0 l 1
EndSplineSet
EndChar

StartChar: Z
Encoding: 90 90 50
Width: 600
VWidth: 1365
Flags: W
HStem: 0 100<100 480> 700 100<0 385>
LayerCount: 2
Fore
SplineSet
0 0 m 1
 0 139 l 1
 385 700 l 1
 0 700 l 1
 0 800 l 1
 480 800 l 1
 480 661 l 1
 100 100 l 1
 480 100 l 1
 480 0 l 1
 0 0 l 1
EndSplineSet
EndChar

StartChar: a
Encoding: 97 97 51
Width: 450
VWidth: 1365
Flags: HW
HStem: 0 80<107.122 220.779> 249 80<108.318 249> 453 80<107.797 218.879>
VStem: 0 80<107.999 220.571 369 422.151> 249 80<108.945 249 329 421.377>
LayerCount: 2
Fore
SplineSet
0 369 m 1
 0 461 73 533 165 533 c 3
 255 533 329 459 329 369 c 2
 329 135 l 2
 329 109 337 99 347 89 c 1
 347 0 l 1
 312 11 294 26 279 46 c 1
 247 15 208 0 163 0 c 259
 73 0 0 75 0 165 c 3
 0 255 74 329 165 329 c 2
 249 329 l 1
 249 369 l 2
 249 415 209 453 164 453 c 3
 118 453 80 415 80 369 c 1
 0 369 l 1
80 164 m 3
 80 117 117 80 164 80 c 3
 211 80 249 117 249 165 c 2
 249 249 l 1
 159 249 l 2
 116 249 80 208 80 164 c 3
EndSplineSet
EndChar

StartChar: b
Encoding: 98 98 52
Width: 432
VWidth: 1365
Flags: W
HStem: 0 80<109.289 220.928> 453 79<107.794 218.626> 780 20G<0 80>
VStem: 0 80<0 23 108.62 425.324 511 800> 249 80<108.945 421.27>
LayerCount: 2
Fore
SplineSet
80 165 m 2
 80 120 118 80 164 80 c 0
 211 80 249 117 249 165 c 2
 249 369 l 2
 249 415 209 453 164 453 c 0
 117 453 80 415 80 369 c 2
 80 165 l 2
0 0 m 1
 0 800 l 1
 80 800 l 1
 80 511 l 1
 106 526 132 532 164 532 c 0
 255 532 329 459 329 369 c 2
 329 165 l 2
 329 74 255 0 164 0 c 0
 133 0 105 8 80 23 c 1
 80 0 l 1
 0 0 l 1
EndSplineSet
EndChar

StartChar: c
Encoding: 99 99 53
Width: 432
VWidth: 1365
Flags: HW
HStem: 0 80<108.311 220.928> 453 79<109.456 218.626>
VStem: 0 80<108.318 421.657> 249 80<108.945 165 369 421.27>
LayerCount: 2
Fore
SplineSet
0 165 m 2
 0 369 l 2
 0 460 73 532 164 532 c 3
 255 532 329 459 329 369 c 1
 249 369 l 1
 249 415 209 453 164 453 c 3
 118 453 80 415 80 369 c 2
 80 165 l 2
 80 118 117 80 164 80 c 3
 211 80 249 117 249 165 c 1
 329 165 l 1
 329 74 255 0 164 0 c 3
 74 0 0 74 0 165 c 2
EndSplineSet
EndChar

StartChar: d
Encoding: 100 100 54
Width: 432
VWidth: 1365
Flags: W
HStem: 0 80<108.55 219.426> 454 78<110.465 219.426> 780 20G<249 329>
VStem: 0 80<108.318 422.044> 249 80<0 23 109.758 424.242 511 800>
LayerCount: 2
Fore
SplineSet
0 369 m 2
 0 461 73 532 165 532 c 3
 196 532 224 526 249 511 c 1
 249 800 l 1
 329 800 l 1
 329 0 l 1
 249 0 l 1
 249 23 l 1
 224 8 196 0 165 0 c 3
 74 0 0 74 0 165 c 2
 0 369 l 2
80 165 m 2
 80 118 117 80 164 80 c 3
 210 80 249 119 249 165 c 2
 249 369 l 2
 249 415 210 454 164 454 c 3
 118 454 80 415 80 369 c 2
 80 165 l 2
EndSplineSet
EndChar

StartChar: e
Encoding: 101 101 55
Width: 432
VWidth: 1365
Flags: W
HStem: 0 80<108.311 220.928> 227 80<80 249> 453 79<109.456 218.626>
VStem: 0 80<108.318 227 307 421.657> 249 80<108.945 165 307 421.27>
LayerCount: 2
Fore
SplineSet
0 165 m 2
 0 369 l 2
 0 460 73 532 164 532 c 3
 255 532 329 459 329 369 c 2
 329 227 l 1
 80 227 l 1
 80 165 l 2
 80 118 117 80 164 80 c 3
 211 80 249 117 249 165 c 1
 329 165 l 1
 329 74 255 0 164 0 c 3
 74 0 0 74 0 165 c 2
80 307 m 1
 249 307 l 1
 249 369 l 2
 249 415 209 453 164 453 c 3
 118 453 80 415 80 369 c 2
 80 307 l 1
EndSplineSet
EndChar

StartChar: f
Encoding: 102 102 56
Width: 309
VWidth: 1365
Flags: W
HStem: 0 21G<63 143> 453 79<0 63 143 205> 720 80<155.424 205>
VStem: 63 80<0 453 532 707.576>
LayerCount: 2
Fore
SplineSet
0 453 m 1
 0 532 l 1
 63 532 l 1
 63 664 l 2
 63 739 124 800 199 800 c 2
 205 800 l 1
 205 720 l 1
 199 720 l 2
 169 720 143 694 143 664 c 2
 143 532 l 1
 205 532 l 1
 205 453 l 1
 143 453 l 1
 143 0 l 1
 63 0 l 1
 63 453 l 1
 0 453 l 1
EndSplineSet
EndChar

StartChar: g
Encoding: 103 103 57
Width: 432
VWidth: 1365
Flags: W
HStem: -267 80<165 235.59> 0 80<108.55 219.426> 454 78<110.465 219.426>
VStem: 0 80<108.318 422.044> 249 80<-173.59 23 109.758 424.242 511 533>
LayerCount: 2
Fore
SplineSet
0 369 m 2
 0 461 73 532 165 532 c 3
 196 532 224 526 249 511 c 1
 249 533 l 1
 329 533 l 1
 329 -131 l 2
 329 -205 267 -267 193 -267 c 2
 165 -267 l 1
 165 -187 l 1
 193 -187 l 2
 222 -187 249 -160 249 -131 c 2
 249 23 l 1
 224 8 196 0 165 0 c 3
 74 0 0 74 0 165 c 2
 0 369 l 2
80 165 m 2
 80 118 117 80 164 80 c 3
 210 80 249 119 249 165 c 2
 249 369 l 2
 249 415 210 454 164 454 c 3
 118 454 80 415 80 369 c 2
 80 165 l 2
EndSplineSet
EndChar

StartChar: h
Encoding: 104 104 58
Width: 432
VWidth: 1365
Flags: W
HStem: 0 21G<0 80 249 329> 453 79<105.565 220.613> 780 20G<0 80>
VStem: 0 80<0 427.808 511 800> 249 80<0 425.436>
LayerCount: 2
Fore
SplineSet
163 532 m 3
 254 532 329 460 329 369 c 2
 329 0 l 1
 249 0 l 1
 249 369 l 1
 249 417 212 453 163 453 c 3
 121 453 80 420 80 381 c 2
 80 0 l 1
 0 0 l 1
 0 800 l 1
 80 800 l 1
 80 511 l 1
 105.798866234 526.049338637 130.61186542 532 163 532 c 3
EndSplineSet
EndChar

StartChar: i
Encoding: 105 105 59
Width: 183
VWidth: 1365
Flags: HW
HStem: 0 21G<0 80> 493 80<5.10236 75.3552>
VStem: 0 80<0 369 498.048 568.793>
LayerCount: 2
Fore
SplineSet
0 0 m 1
 0 369 l 1
 80 369 l 1
 80 0 l 1
 0 0 l 1
40 493 m 256
 19 493 0 511 0 532 c 256
 0 555 17 573 40 573 c 256
 63 573 80 555 80 532 c 256
 80 510 62 493 40 493 c 256
EndSplineSet
EndChar

StartChar: j
Encoding: 106 106 60
Width: 246
VWidth: 1365
Flags: W
HStem: -267 80<0 47.4011> 512 20G<63 143> 658 80<63.393 134.793>
VStem: 63 80<-171.401 532 664.592 731.408>
LayerCount: 2
Fore
SplineSet
0 -187 m 1
 7 -187 l 2
 36 -187 63 -160 63 -131 c 2
 63 532 l 1
 143 532 l 1
 143 -131 l 2
 143 -206 82 -267 7 -267 c 2
 0 -267 l 1
 0 -187 l 1
59 698 m 256
 59 721 77 738 99 738 c 256
 122 738 139 721 139 698 c 256
 139 675 122 658 99 658 c 256
 77 658 59 676 59 698 c 256
EndSplineSet
EndChar

StartChar: k
Encoding: 107 107 61
Width: 432
VWidth: 1365
Flags: W
HStem: 0 21G<0 80 239.336 329> 512 20G<219.579 329> 780 20G<0 80>
VStem: 0 80<0 160 304 800>
LayerCount: 2
Fore
SplineSet
0 0 m 1
 0 800 l 1
 80 800 l 1
 80 304 l 1
 233 532 l 1
 329 532 l 1
 222 373 l 1
 329 0 l 1
 245 0 l 1
 164 286 l 1
 80 160 l 1
 80 0 l 1
 0 0 l 1
EndSplineSet
EndChar

StartChar: l
Encoding: 108 108 62
Width: 246
VWidth: 1365
Flags: W
HStem: 0 80<92.4237 143> 780 20G<0 80>
VStem: 0 80<92.4237 800>
LayerCount: 2
Fore
SplineSet
0 136 m 2
 0 800 l 1
 80 800 l 1
 80 136 l 2
 80 105 105 80 136 80 c 2
 143 80 l 1
 143 0 l 1
 136 0 l 2
 61 0 0 61 0 136 c 2
EndSplineSet
EndChar

StartChar: m
Encoding: 109 109 63
Width: 592
VWidth: 1365
Flags: W
HStem: 0 21G<25 105 217 297 409 489> 453 79<117.074 203.187 309.444 394.681>
VStem: 0 66<495 513.839> 25 80<0 441.078> 217 80<0 439.59> 409 80<0 437.68>
LayerCount: 2
Fore
SplineSet
161 532 m 3xec
 199 532 231 520 257 494 c 1
 283 520 315 532 353 532 c 259
 429 532 489 473 489 397 c 2
 489 0 l 1
 409 0 l 1
 409 397 l 2
 409 426 382 453 353 453 c 3
 323 453 297 428 297 397 c 2
 297 0 l 1
 217 0 l 1
 217 397 l 2
 217 426 190 453 161 453 c 3
 131 453 105 428 105 397 c 2
 105 0 l 1
 25 0 l 1
 25 401 l 2xdc
 25 419 14 437 0 447 c 1
 0 532 l 1
 25 527 46 516 65 497 c 0
 66 496 66 496 66 495 c 1
 92 520 124 532 161 532 c 3xec
EndSplineSet
EndChar

StartChar: n
Encoding: 110 110 64
Width: 451
VWidth: 1365
Flags: HW
HStem: 0 21G<19 99 267 347> 453 79<128.307 236.392>
VStem: 19 80<0 423.406> 267 80<0 421.27>
LayerCount: 2
Fore
SplineSet
183 532 m 3
 273 532 347 459 347 369 c 2
 347 0 l 1
 267 0 l 1
 267 369 l 2
 267 414 228 453 183 453 c 3
 138 453 99 414 99 369 c 2
 99 0 l 1
 19 0 l 1
 19 383 l 2
 19 404 13 421 0 436 c 1
 0 532 l 1
 26 523 48 504 65 483 c 1
 98 516 136 532 183 532 c 3
EndSplineSet
EndChar

StartChar: o
Encoding: 111 111 65
Width: 432
VWidth: 1365
Flags: HW
HStem: 0 80<108.311 220.928> 453 79<109.456 218.626>
VStem: 0 80<108.318 421.657> 249 80<108.945 421.27>
LayerCount: 2
Fore
SplineSet
0 165 m 2
 0 369 l 2
 0 460 73 532 164 532 c 3
 255 532 329 459 329 369 c 2
 329 165 l 2
 329 74 255 0 164 0 c 3
 74 0 0 74 0 165 c 2
80 165 m 2
 80 118 117 80 164 80 c 3
 211 80 249 117 249 165 c 2
 249 369 l 2
 249 415 209 453 164 453 c 3
 118 453 80 415 80 369 c 2
 80 165 l 2
EndSplineSet
EndChar

StartChar: p
Encoding: 112 112 66
Width: 432
VWidth: 1365
Flags: W
HStem: -267 21G<0 80> 0 80<109.289 220.928> 453 79<107.794 218.626>
VStem: 0 80<-267 23 108.62 425.324 511 532> 249 80<108.945 421.27>
LayerCount: 2
Fore
SplineSet
0 -267 m 1
 0 532 l 1
 80 532 l 1
 80 511 l 1
 106 526 132 532 164 532 c 3
 255 532 329 459 329 369 c 2
 329 165 l 2
 329 74 255 0 164 0 c 3
 133 0 105 8 80 23 c 1
 80 -267 l 1
 0 -267 l 1
80 165 m 2
 80 120 118 80 164 80 c 3
 211 80 249 117 249 165 c 2
 249 369 l 2
 249 415 209 453 164 453 c 3
 117 453 80 415 80 369 c 2
 80 165 l 2
EndSplineSet
EndChar

StartChar: q
Encoding: 113 113 67
Width: 432
VWidth: 1365
Flags: W
HStem: -267 80<165 235.59> 0 80<108.55 219.426> 454 78<110.465 219.426>
VStem: 0 80<108.318 422.044> 249 80<-173.59 23 109.758 424.242 511 532>
LayerCount: 2
Fore
SplineSet
0 369 m 2
 0 461 73 532 165 532 c 3
 196 532 224 526 249 511 c 1
 249 532 l 1
 329 532 l 1
 329 -131 l 2
 329 -205 267 -267 193 -267 c 2
 165 -267 l 1
 165 -187 l 1
 193 -187 l 2
 222 -187 249 -160 249 -131 c 2
 249 23 l 1
 224 8 196 0 165 0 c 3
 74 0 0 74 0 165 c 2
 0 369 l 2
80 165 m 2
 80 118 117 80 164 80 c 3
 210 80 249 119 249 165 c 2
 249 369 l 2
 249 415 210 454 164 454 c 3
 118 454 80 415 80 369 c 2
 80 165 l 2
EndSplineSet
EndChar

StartChar: r
Encoding: 114 114 68
Width: 432
VWidth: 1365
Flags: W
HStem: 0 21G<0 80> 453 79<227.18 329>
VStem: 0 80<0 303.234 420 532>
LayerCount: 2
Fore
SplineSet
329 453 m 1
 193 453 80 344 80 207 c 2
 80 0 l 1
 0 0 l 1
 0 532 l 1
 80 532 l 1
 80 420 l 1
 140 492 230 532 329 532 c 1
 329 453 l 1
EndSplineSet
EndChar

StartChar: s
Encoding: 115 115 69
Width: 432
VWidth: 1365
Flags: W
HStem: 0 80<110.812 225.296> 453 79<122.657 205.379>
VStem: 0 80<112.129 165> 34 80<361.786 442.792> 215 80<403 441.27> 249 80<103.338 220.784>
LayerCount: 2
Fore
SplineSet
34 403 m 3xd4
 34 475 93 532 164 532 c 3
 235 532 295 474 295 403 c 1
 215 403 l 1
 215 430 191 453 164 453 c 3
 137 453 114 431 114 404 c 3xd8
 114 378 127 365 142 358 c 2
 237 312 l 2
 254 304 274 288 296 266 c 1
 318 244 329 210 329 165 c 3
 329 74 255 0 164 0 c 3
 74 0 0 74 0 165 c 1
 80 165 l 1xe4
 80 121 120 80 164 80 c 3
 220 80 249 111 249 164 c 3
 249 204 225 229 201 240 c 2
 107 286 l 2
 94 293 78 304 60 322 c 0
 42 340 34 367 34 403 c 3xd4
EndSplineSet
EndChar

StartChar: t
Encoding: 116 116 70
Width: 309
VWidth: 1365
Flags: W
HStem: 0 80<155.424 205> 453 79<0 63 143 205> 780 20G<63 143>
VStem: 63 80<95.2275 453 532 800>
LayerCount: 2
Fore
SplineSet
0 453 m 1
 0 532 l 1
 63 532 l 1
 63 800 l 1
 143 800 l 1
 143 532 l 1
 205 532 l 1
 205 453 l 1
 143 453 l 1
 143 136 l 2
 143 106 169 80 199 80 c 2
 205 80 l 1
 205 0 l 1
 199 0 l 2
 124 0 63 60 63 136 c 2
 63 453 l 1
 0 453 l 1
EndSplineSet
EndChar

StartChar: u
Encoding: 117 117 71
Width: 451
VWidth: 1365
Flags: HW
HStem: 0 80<108.311 220.48> 512 20G<0 80 249 329>
VStem: 0 80<108.318 532> 249 80<108.945 532>
LayerCount: 2
Fore
SplineSet
0 165 m 2
 0 532 l 1
 80 532 l 1
 80 165 l 2
 80 118 117 80 164 80 c 3
 211 80 249 117 249 165 c 2
 249 532 l 1
 329 532 l 1
 329 151 l 2
 329 130 335 112 347 97 c 1
 347 0 l 1
 323 9 300 29 283 50 c 1
 250 17 212 0 164 0 c 3
 74 0 0 74 0 165 c 2
EndSplineSet
EndChar

StartChar: v
Encoding: 118 118 72
Width: 432
VWidth: 1365
Flags: W
HStem: 0 21G<101.053 227.947> 512 20G<0 85.0095 243.086 329>
VStem: 0 329
LayerCount: 2
Fore
SplineSet
0 532 m 1
 81 532 l 1
 165 113 l 1
 247 532 l 1
 329 532 l 1
 224 0 l 1
 105 0 l 1
 0 532 l 1
EndSplineSet
EndChar

StartChar: w
Encoding: 119 119 73
Width: 592
VWidth: 1365
Flags: W
HStem: 0 21G<66.406 131.934 357.131 421.632> 512 20G<0 75.1348 422.301 489>
VStem: 426 63<494.153 532>
LayerCount: 2
Fore
SplineSet
0 532 m 1
 72 532 l 1
 122 213 l 1
 217 453 l 1
 272 453 l 1
 367 213 l 1
 426 532 l 1
 489 532 l 1
 419 0 l 1
 365 0 l 1
 245 305 l 1
 124 0 l 1
 69 0 l 1
 0 532 l 1
EndSplineSet
EndChar

StartChar: x
Encoding: 120 120 74
Width: 432
VWidth: 1365
Flags: W
HStem: 0 21G<0 97.1124 232.006 329> 512 20G<0 97.1667 231.952 329>
VStem: 0 329
LayerCount: 2
Fore
SplineSet
0 0 m 1
 116 267 l 1
 0 532 l 1
 88 532 l 1
 165 364 l 1
 241 532 l 1
 329 532 l 1
 208 267 l 1
 329 0 l 1
 241 0 l 1
 165 169 l 1
 88 0 l 1
 0 0 l 1
EndSplineSet
EndChar

StartChar: y
Encoding: 121 121 75
Width: 432
VWidth: 1365
Flags: W
HStem: -267 80<40 83.358> 512 20G<0 86.5479 242.507 329>
VStem: 0 329
LayerCount: 2
Fore
SplineSet
40 -267 m 1
 40 -187 l 1
 67 -187 90 -167 95 -143 c 2
 123 0 l 1
 0 532 l 1
 82 532 l 1
 165 167 l 1
 247 532 l 1
 329 532 l 1
 175 -152 l 1
 164 -216 110 -267 40 -267 c 1
EndSplineSet
EndChar

StartChar: z
Encoding: 122 122 76
Width: 432
VWidth: 1365
Flags: W
HStem: 0 80<80 329> 453 79<0 238>
VStem: 0 329<0 80 453 532>
LayerCount: 2
Fore
SplineSet
0 0 m 1
 0 105 l 1
 238 453 l 1
 0 453 l 1
 0 532 l 5
 329 532 l 1
 329 428 l 1
 80 80 l 1
 329 80 l 1
 329 0 l 1
 0 0 l 1
EndSplineSet
EndChar

StartChar: asciitilde
Encoding: 126 126 77
Width: 600
VWidth: 1365
Flags: W
HStem: 320 52<336.668 456.597> 484 52<81.8443 202.286>
LayerCount: 2
Fore
SplineSet
0 428 m 1
 15 483 68 536 143 536 c 259
 184 536 223 521 254 485 c 2
 324 405 l 1
 346 383 370 372 396 372 c 3
 442 372 470 399 483 428 c 1
 539 428 l 1
 524 374 470 320 396 320 c 259
 355 320 316 335 285 371 c 2
 215 451 l 1
 193 473 168 484 142 484 c 3
 97 484 68 456 55 428 c 1
 0 428 l 1
EndSplineSet
EndChar

StartChar: degree
Encoding: 176 176 78
Width: 120
VWidth: 1365
Flags: W
HStem: 720 52<-26.4235 27.1461> 828 52<-27.1461 27.1716>
VStem: -80 52<773.577 827.172> 28 52<772.828 827.172>
LayerCount: 2
Fore
SplineSet
-80 800 m 256
 -80 843 -43 880 0 880 c 256
 43 880 80 843 80 800 c 256
 80 757 43 720 0 720 c 0
 -44 720 -80 756 -80 800 c 256
-28 800 m 0
 -28 785 -15 772 0 772 c 256
 15 772 28 784 28 800 c 0
 28 816 16 828 0 828 c 0
 -15 828 -28 816 -28 800 c 0
EndSplineSet
EndChar

StartChar: bullet
Encoding: 8226 8226 79
Width: 359
VWidth: 1365
Flags: W
HStem: 280 52<70.6745 169.326> 469 51<70.856 169.144>
VStem: 0 52<350.913 449.644> 188 52<350.913 449.644>
LayerCount: 2
Fore
SplineSet
0 400 m 256
 0 466 54 520 120 520 c 256
 186 520 240 466 240 400 c 256
 240 334 186 280 120 280 c 256
 54 280 0 334 0 400 c 256
52 401 m 0
 52 363 82 332 120 332 c 256
 158 332 188 363 188 401 c 0
 188 438 157 469 120 469 c 0
 83 469 52 438 52 401 c 0
EndSplineSet
EndChar

StartChar: plusminus
Encoding: 177 177 80
Width: 600
VWidth: 1365
Flags: W
HStem: 95 52<0 480> 439 52<0 214 266 480>
VStem: 214 52<225 439 491 705>
LayerCount: 2
Fore
SplineSet
0 95 m 1
 0 147 l 1
 480 147 l 1
 480 95 l 1
 0 95 l 1
0 439 m 1
 0 491 l 1
 214 491 l 1
 214 705 l 1
 266 705 l 1
 266 491 l 1
 480 491 l 1
 480 439 l 1
 266 439 l 1
 266 225 l 1
 214 225 l 1
 214 439 l 1
 0 439 l 1
EndSplineSet
EndChar

StartChar: lessequal
Encoding: 8804 8804 81
Width: 600
VWidth: 1365
Flags: W
LayerCount: 2
Fore
SplineSet
0 319 m 1
 0 377 l 1
 480 137 l 1
 480 79 l 1
 0 319 l 1
0 481 m 1
 480 721 l 1
 480 663 l 1
 116 481 l 1
 480 299 l 1
 480 241 l 1
 0 481 l 1
EndSplineSet
EndChar

StartChar: greaterequal
Encoding: 8805 8805 82
Width: 600
VWidth: 1365
Flags: W
LayerCount: 2
Fore
SplineSet
0 79 m 1
 0 137 l 1
 480 377 l 1
 480 319 l 1
 0 79 l 1
0 241 m 1
 0 299 l 1
 364 481 l 1
 0 663 l 1
 0 721 l 1
 480 481 l 1
 0 241 l 1
EndSplineSet
EndChar

StartChar: yen
Encoding: 165 165 83
Width: 1079
VWidth: 1365
Flags: W
HStem: 0 52<123.95 274.244 681.974 836.05> 348 52<122.098 276.701 687.009 837.691>
VStem: 0 52<123.95 275.843> 908 52<123.95 277.902>
LayerCount: 2
Fore
SplineSet
200 0 m 256
 86 0 0 86 0 200 c 256
 0 313 88 400 200 400 c 0
 249 400 301 378 333 351 c 2
 480 235 l 1
 627 351 l 2
 659 378 711 400 760 400 c 0
 871 400 960 312 960 200 c 256
 960 86 874 0 760 0 c 256
 704 0 655 29 619 57 c 2
 480 168 l 1
 341 57 l 1
 308 26 255 0 200 0 c 256
52 200 m 256
 52 117 117 52 200 52 c 256
 237 52 275 71 299 90 c 2
 438 201 l 1
 304 306 l 1
 281 329 240 348 200 348 c 256
 117 348 52 283 52 200 c 256
760 52 m 256
 843 52 908 117 908 200 c 256
 908 283 843 348 760 348 c 256
 721 348 682 326 656 306 c 2
 522 201 l 1
 661 90 l 1
 683 68 723 52 760 52 c 256
EndSplineSet
EndChar

StartChar: summation
Encoding: 8721 8721 84
Width: 600
VWidth: 1365
Flags: W
HStem: 0 100<117 480> 700 100<117 480>
LayerCount: 2
Fore
SplineSet
0 0 m 1
 0 100 l 1
 179 400 l 1
 0 700 l 1
 0 800 l 1
 480 800 l 1
 480 700 l 1
 117 700 l 1
 296 400 l 1
 117 100 l 1
 480 100 l 1
 480 0 l 1
 0 0 l 1
EndSplineSet
EndChar

StartChar: Omega
Encoding: 8486 8486 85
Width: 939
VWidth: 1365
Flags: W
HStem: 0 100<0 226 594 820> 700 100<324.077 495.946>
VStem: 119 101<428.295 594.316> 226 100<100 286> 494 100<100 306.023> 600 100<427.956 595.946>
LayerCount: 2
Fore
SplineSet
410 700 m 0
 308 700 220 614 220 510 c 0
 220 457 246 405 298 353 c 1
 326 339 l 1
 326 0 l 1
 0 0 l 1
 0 100 l 1
 226 100 l 1
 226 286 l 1
 215 295 l 1
 151 358 119 427 119 506 c 0
 119 666 249 800 410 800 c 256
 569 800 700 669 700 510 c 0
 700 430 684 374 652 342 c 0
 620 310 601 292 594 286 c 1
 594 100 l 1
 820 100 l 1
 820 0 l 1
 494 0 l 1
 494 339 l 1
 522 353 l 1
 574 405 600 457 600 510 c 0
 600 614 514 700 410 700 c 0
EndSplineSet
EndChar

StartChar: radical
Encoding: 8730 8730 86
Width: 1000
VWidth: 1365
Flags: W
HStem: 0 21G<104 223.231> 638 164<0 104> 899 61<585 880>
VStem: 0 215<638 802> 104 111<168 638>
LayerCount: 2
Fore
SplineSet
0 638 m 1xf0
 0 802 l 1
 215 802 l 1xf0
 215 168 l 1
 218 168 l 1
 544 960 l 1
 880 960 l 1
 880 899 l 1
 585 899 l 1
 215 0 l 1
 104 0 l 1
 104 638 l 1xe8
 0 638 l 1xf0
EndSplineSet
EndChar

StartChar: approxequal
Encoding: 8776 8776 87
Width: 599
VWidth: 1365
Flags: W
HStem: 320 24<320.21 414.776> 440 24<320.21 414.776> 456 24<65.2235 159.79> 576 24<65.2235 159.79>
LayerCount: 2
Fore
SplineSet
0 400 m 1xb0
 13 438 54 480 108 480 c 0
 138 480 164 472 185 456 c 2
 309 363 l 2
 326 350 346 344 370 344 c 0
 414 344 441 372 454 400 c 1
 480 400 l 1
 467 362 426 320 372 320 c 0
 342 320 316 328 295 344 c 2
 171 437 l 2
 154 450 134 456 110 456 c 0
 66 456 39 428 26 400 c 1
 0 400 l 1xb0
0 520 m 1
 13 558 54 600 108 600 c 0
 138 600 164 592 185 576 c 2
 309 483 l 2
 326 470 346 464 370 464 c 0
 414 464 441 492 454 520 c 1
 480 520 l 1
 467 482 426 440 372 440 c 0
 342 440 316 448 295 464 c 2xd0
 171 557 l 2
 154 570 134 576 110 576 c 0
 66 576 39 548 26 520 c 1
 0 520 l 1
EndSplineSet
EndChar

StartChar: Delta
Encoding: 8710 8710 88
Width: 939
VWidth: 1365
Flags: W
HStem: 0 100<163 657> 780 20G<399.75 420.25>
LayerCount: 2
Fore
SplineSet
0 0 m 1
 410 800 l 1
 820 0 l 1
 0 0 l 1
163 100 m 1
 657 100 l 1
 410 581 l 1
 163 100 l 1
EndSplineSet
EndChar

StartChar: Gamma
Encoding: 915 915 91
Width: 600
VWidth: 1365
Flags: W
HStem: 0 21G<0 100> 700 100<100 480>
VStem: 0 100<0 700>
LayerCount: 2
Fore
SplineSet
0 0 m 1
 0 800 l 1
 480 800 l 1
 480 700 l 1
 100 700 l 1
 100 0 l 1
 0 0 l 1
EndSplineSet
EndChar

StartChar: uni0394
Encoding: 916 916 92
Width: 940
VWidth: 1365
Flags: W
HStem: 0 100<163 657> 780 20G<399.75 420.25>
LayerCount: 2
Fore
SplineSet
0 0 m 1
 410 800 l 1
 820 0 l 1
 0 0 l 1
163 100 m 1
 657 100 l 1
 410 581 l 1
 163 100 l 1
EndSplineSet
EndChar

StartChar: Zeta
Encoding: 918 918 94
Width: 600
VWidth: 1365
Flags: W
HStem: 0 100<100 480> 700 100<0 385>
LayerCount: 2
Fore
SplineSet
0 0 m 1
 0 139 l 1
 385 700 l 1
 0 700 l 1
 0 800 l 1
 480 800 l 1
 480 661 l 1
 100 100 l 1
 480 100 l 1
 480 0 l 1
 0 0 l 1
EndSplineSet
EndChar

StartChar: Theta
Encoding: 920 920 96
Width: 600
VWidth: 1365
Flags: W
HStem: 0 100<168.191 311.809> 350 100<100 380> 700 100<168.191 311.809>
VStem: 0 100<168.835 350 450 631.165> 380 100<168.835 350 450 631.165>
CounterMasks: 1 e0
LayerCount: 2
Fore
SplineSet
240 0 m 256
 108 0 0 108 0 240 c 2
 0 560 l 2
 0 692 108 800 240 800 c 256
 372 800 480 692 480 560 c 2
 480 240 l 2
 480 108 372 0 240 0 c 256
100 240 m 2
 100 163 163 100 240 100 c 256
 317 100 380 163 380 240 c 2
 380 350 l 1
 100 350 l 1
 100 240 l 2
100 450 m 1
 380 450 l 1
 380 560 l 2
 380 637 317 700 240 700 c 256
 163 700 100 637 100 560 c 2
 100 450 l 1
EndSplineSet
EndChar

StartChar: Lambda
Encoding: 923 923 99
Width: 940
VWidth: 1365
Flags: W
HStem: 0 21G<0 121.293 696.776 820> 780 20G<399.75 420.25>
LayerCount: 2
Fore
SplineSet
0 0 m 1
 410 800 l 1
 820 0 l 1
 707 0 l 1
 410 581 l 1
 111 0 l 1
 0 0 l 1
EndSplineSet
EndChar

StartChar: Xi
Encoding: 926 926 102
Width: 600
VWidth: 1365
Flags: W
HStem: 0 150<0 100 380 480> 0 100<100 380> 350 100<100 380> 650 150<0 100 380 480> 700 100<100 380>
VStem: 0 100<100 150 650 700> 380 100<100 150 650 700>
LayerCount: 2
Fore
SplineSet
0 0 m 1xa6
 0 150 l 1
 100 150 l 1xa6
 100 100 l 1
 380 100 l 1x66
 380 150 l 1
 480 150 l 1
 480 0 l 1
 0 0 l 1xa6
0 650 m 1x36
 0 800 l 1
 480 800 l 1
 480 650 l 1
 380 650 l 1x36
 380 700 l 1
 100 700 l 1x2e
 100 650 l 1
 0 650 l 1x36
100 350 m 1
 100 450 l 1
 380 450 l 1
 380 350 l 1
 100 350 l 1
EndSplineSet
EndChar

StartChar: Pi
Encoding: 928 928 104
Width: 600
VWidth: 1365
Flags: W
HStem: 0 21G<0 100 380 480> 700 100<100 380>
VStem: 0 100<0 700> 380 100<0 700>
LayerCount: 2
Fore
SplineSet
0 0 m 1
 0 800 l 1
 480 800 l 1
 480 0 l 1
 380 0 l 1
 380 700 l 1
 100 700 l 1
 100 0 l 1
 0 0 l 1
EndSplineSet
EndChar

StartChar: Sigma
Encoding: 931 931 106
Width: 600
VWidth: 1365
Flags: W
HStem: 0 100<117 480> 700 100<117 480>
LayerCount: 2
Fore
SplineSet
0 0 m 1
 0 100 l 1
 179 400 l 1
 0 700 l 1
 0 800 l 1
 480 800 l 1
 480 700 l 1
 117 700 l 1
 296 400 l 1
 117 100 l 1
 480 100 l 1
 480 0 l 1
 0 0 l 1
EndSplineSet
EndChar

StartChar: Tau
Encoding: 932 932 107
Width: 600
VWidth: 1365
Flags: W
HStem: 0 21G<190 290> 700 100<0 190 290 480>
VStem: 190 100<0 700>
LayerCount: 2
Fore
SplineSet
0 700 m 1
 0 800 l 1
 480 800 l 1
 480 700 l 1
 290 700 l 1
 290 0 l 1
 190 0 l 1
 190 700 l 1
 0 700 l 1
EndSplineSet
EndChar

StartChar: Upsilon
Encoding: 933 933 108
Width: 600
VWidth: 1365
Flags: W
HStem: 0 21G<190 290> 780 20G<0 113.109 366.891 480>
VStem: 190 100<0 267>
LayerCount: 2
Fore
SplineSet
290 0 m 1
 190 0 l 1
 190 267 l 1
 0 800 l 1
 106 800 l 1
 240 423 l 1
 374 800 l 1
 480 800 l 1
 290 267 l 1
 290 0 l 1
EndSplineSet
EndChar

StartChar: Phi
Encoding: 934 934 109
Width: 840
VWidth: 1365
Flags: W
HStem: 0 21G<310 410> 200 100<168.835 310 410 551.165> 600 100<168.835 310 410 551.165> 780 20G<310 410>
VStem: 0 100<368.835 531.165> 310 100<0 200 300 600 700 800> 620 100<368.835 531.165>
CounterMasks: 1 0e
LayerCount: 2
Fore
SplineSet
240 200 m 2
 108 200 0 308 0 440 c 2
 0 460 l 2
 0 592 108 700 240 700 c 2
 310 700 l 1
 310 800 l 1
 410 800 l 1
 410 700 l 1
 480 700 l 2
 612 700 720 592 720 460 c 2
 720 440 l 2
 720 308 612 200 480 200 c 2
 410 200 l 1
 410 0 l 1
 310 0 l 1
 310 200 l 1
 240 200 l 2
100 440 m 2
 100 363 163 300 240 300 c 2
 310 300 l 1
 310 600 l 1
 240 600 l 2
 163 600 100 537 100 460 c 2
 100 440 l 2
410 300 m 1
 480 300 l 2
 557 300 620 363 620 440 c 2
 620 460 l 2
 620 537 557 600 480 600 c 2
 410 600 l 1
 410 300 l 1
EndSplineSet
EndChar

StartChar: Chi
Encoding: 935 935 110
Width: 600
VWidth: 1365
Flags: HW
HStem: 0 21G<0 112.751 360.747 480> 780 20G<2 112.751 360.747 480>
LayerCount: 2
Fore
SplineSet
0 0 m 1
 185 400 l 1
 2 800 l 1
 103 800 l 1
 240 519 l 1
 370 800 l 1
 480 800 l 1
 295 400 l 1
 480 0 l 1
 370 0 l 1
 240 281 l 1
 103 0 l 1
 0 0 l 1
EndSplineSet
EndChar

StartChar: Psi
Encoding: 936 936 111
Width: 940
VWidth: 1365
Flags: HW
HStem: 0 21G<360 460> 300 100<252.835 360 460 568.453> 700 100<0 54.4856 765.514 820>
VStem: 84 100<468.835 670.486> 360 100<0 300 400 800> 636 100<467.547 670.486>
CounterMasks: 1 1c
LayerCount: 2
Fore
SplineSet
324 300 m 2
 192 300 84 408 84 540 c 2
 84 616 l 2
 84 663 47 700 0 700 c 1
 0 800 l 1
 101 800 184 717 184 616 c 2
 184 540 l 2
 184 463 247 400 324 400 c 2
 360 400 l 1
 360 800 l 1
 460 800 l 1
 460 400 l 1
 496 400 l 2
 573 400 636 463 636 540 c 2
 636 616 l 2
 636 717 719 800 820 800 c 1
 820 700 l 1
 773 700 736 663 736 616 c 2
 736 540 l 2
 736 419.793010329 610.065415266 300 496 300 c 2
 460 300 l 1
 460 0 l 1
 360 0 l 1
 360 300 l 1
 324 300 l 2
EndSplineSet
EndChar

StartChar: uni03A9
Encoding: 937 937 112
Width: 940
VWidth: 1365
Flags: HW
HStem: 0 100<0 226 594 820> 700 100<324.077 495.946>
VStem: 119 101<428.295 594.316> 226 100<100 286> 494 100<100 306.023> 600 100<427.956 595.946>
LayerCount: 2
Fore
SplineSet
410 700 m 3
 308 700 220 614 220 510 c 3
 220 406.191642099 284 362 326 339 c 1
 326 0 l 1
 0 0 l 1
 0 100 l 1
 226 100 l 1
 226 286 l 1
 199 308 119 376.669339896 119 506 c 3
 119 666 249 800 410 800 c 259
 569 800 700 669 700 510 c 3
 700 368.393545558 629 313 594 286 c 1
 594 100 l 1
 820 100 l 1
 820 0 l 1
 494 0 l 1
 494 339 l 1
 536.665925668 361.832962834 600 395.277997373 600 510 c 3
 600 614 514 700 410 700 c 3
EndSplineSet
EndChar

StartChar: "+AMEA"
Encoding: 1041 1041 114
Width: 600
VWidth: 1365
Flags: W
HStem: 0 100<100 311.165> 400 100<100 311.165> 700 100<100 430>
VStem: 0 100<100 400 500 700> 380 100<168.835 331.165>
LayerCount: 2
Fore
SplineSet
480 240 m 2
 480 108 372 0 240 0 c 2
 0 0 l 1
 0 800 l 1
 430 800 l 1
 430 700 l 1
 100 700 l 1
 100 500 l 1
 240 500 l 2
 372 500 480 392 480 260 c 2
 480 240 l 2
100 100 m 1
 240 100 l 2
 317 100 380 163 380 240 c 2
 380 260 l 2
 380 337 317 400 240 400 c 2
 100 400 l 1
 100 100 l 1
EndSplineSet
EndChar

StartChar: "+AMMA"
Encoding: 1043 1043 116
Width: 600
VWidth: 1365
Flags: W
HStem: 0 21G<0 100> 700 100<100 480>
VStem: 0 100<0 700>
LayerCount: 2
Fore
SplineSet
0 0 m 1
 0 800 l 1
 480 800 l 1
 480 700 l 1
 100 700 l 1
 100 0 l 1
 0 0 l 1
EndSplineSet
EndChar

StartChar: "+AMQA"
Encoding: 1044 1044 117
Width: 840
VWidth: 1365
Flags: HW
HStem: -100 200<0 98 620 720> 0 100<100 100 203 520> 700 100<343.388 520>
VStem: 0 98<-100 0> 520 100<100 700> 620 100<-100 0>
LayerCount: 2
Fore
SplineSet
0 -100 m 1xb4
 0 100 l 1xb4
 100 100 l 1
 240 689 l 2
 257 763 304 800 380 800 c 2
 620 800 l 1x74
 620 100 l 1xb8
 720 100 l 1
 720 -100 l 1
 620 -100 l 1xb4
 620 0 l 1
 100 0 l 1x74
 100 -100 l 1
 0 -100 l 1xb4
520 100 m 1x78
 520 700 l 1
 380 700 l 2
 357 700 342 689 337 666 c 2
 203 100 l 1
 520 100 l 1x78
EndSplineSet
EndChar

StartChar: "+AMYA"
Encoding: 1046 1046 119
Width: 840
VWidth: 1365
Flags: W
HStem: 0 21G<0 114.85 310 409 605.15 720> 400 100<264 310 409 456> 780 20G<0 122.067 310 409 597.933 720>
VStem: 310 99<0 400 500 800>
LayerCount: 2
Fore
SplineSet
310 500 m 1
 310 800 l 1
 409 800 l 1
 409 500 l 1
 457 500 l 1
 608 800 l 1
 720 800 l 1
 544 450 l 1
 720 0 l 1
 613 0 l 1
 456 400 l 1
 409 400 l 1
 409 0 l 1
 310 0 l 1
 310 400 l 1
 264 400 l 1
 107 0 l 1
 0 0 l 1
 176 450 l 1
 0 800 l 1
 112 800 l 1
 263 500 l 1
 310 500 l 1
EndSplineSet
EndChar

StartChar: "+AMcA"
Encoding: 1047 1047 120
Width: 600
VWidth: 1365
Flags: HW
HStem: 0 100<168.191 311.809> 350 100<190 333.351> 700 100<168.191 312.356>
VStem: 0 100<168.835 240 560 631.165> 380 100<168.191 303.272 496.605 633.02>
CounterMasks: 1 e0
LayerCount: 2
Fore
SplineSet
480 240 m 3
 480 108 372 0 240 0 c 259
 108 0 0 108 0 240 c 1
 100 240 l 1
 100 163 163 100 240 100 c 3
 317 100 380 163 380 240 c 3
 380 300 330 350 270 350 c 2
 190 350 l 1
 190 450 l 1
 270 450 l 2
 334 450 380 501 380 567 c 3
 380 638 313 700 240 700 c 3
 163 700 100 637 100 560 c 1
 0 560 l 1
 0 692 108 800 240 800 c 259
 372 800 480 692 480 560 c 3
 480 502 455 449 406 400 c 1
 455 351 480 298 480 240 c 3
EndSplineSet
EndChar

StartChar: "+AMkA"
Encoding: 1049 1049 122
Width: 600
VWidth: 1365
Flags: HW
HStem: 0 21G<0 119.247 380 480> 780 20G<0 100 367.514 480> 900 100<150 330>
VStem: 0 100<216 800> 150 180<900 1000> 380 100<0 584>
CounterMasks: 1 1c
LayerCount: 2
Fore
SplineSet
150 900 m 1
 150 1000 l 1
 330 1000 l 1
 330 900 l 1
 150 900 l 1
EndSplineSet
Refer: 121 1048 S 1 0 0 1 0 0 2
EndChar

StartChar: "+AMsA"
Encoding: 1051 1051 124
Width: 600
VWidth: 1365
Flags: W
HStem: 0 21G<0 39 380 480> 700 100<258.617 380>
VStem: 380 100<0 700>
LayerCount: 2
Fore
SplineSet
0 0 m 1
 0 100 l 1
 24 100 38 112 43 135 c 2
 158 684 l 1
 172 761 218 800 296 800 c 2
 480 800 l 1
 480 0 l 1
 380 0 l 1
 380 700 l 1
 296 700 l 2
 272 700 258 688 253 665 c 2
 141 115 l 2
 125 38 78 0 0 0 c 1
EndSplineSet
EndChar

StartChar: "+AM8A"
Encoding: 1055 1055 128
Width: 600
VWidth: 1365
Flags: W
HStem: 0 21G<0 100 380 480> 700 100<100 380>
VStem: 0 100<0 700> 380 100<0 700>
LayerCount: 2
Fore
SplineSet
0 0 m 1
 0 800 l 1
 480 800 l 1
 480 0 l 1
 380 0 l 1
 380 700 l 1
 100 700 l 1
 100 0 l 1
 0 0 l 1
EndSplineSet
EndChar

StartChar: "+ANIA"
Encoding: 1058 1058 131
Width: 600
VWidth: 1365
Flags: W
HStem: 0 21G<190 290> 700 100<0 190 290 480>
VStem: 190 100<0 700>
LayerCount: 2
Fore
SplineSet
0 700 m 1
 0 800 l 1
 480 800 l 1
 480 700 l 1
 290 700 l 1
 290 0 l 1
 190 0 l 1
 190 700 l 1
 0 700 l 1
EndSplineSet
EndChar

StartChar: "+ANMA"
Encoding: 1059 1059 132
Width: 600
VWidth: 1365
Flags: HW
HStem: 0 99<100 172.107> 267 100<169.717 253> 780 20G<0 104.182 372.335 480>
LayerCount: 2
Fore
SplineSet
207 367 m 9
 276 367 l 1
 377 800 l 1
 480 800 l 1
 337 189 l 2
 313.572909123 91.0321654238 226.768554688 0 100 0 c 1
 100 99 l 1
 173 101 226 152 239 211 c 1
 253 267 l 1
 207 267 l 2
 131 267 75 324 65 388 c 2
 0 800 l 1
 101 800 l 1
 164 404 l 1
 168 384 185 367 207 367 c 9
EndSplineSet
EndChar

StartChar: "+ANQA"
Encoding: 1060 1060 133
Width: 840
VWidth: 1365
Flags: W
HStem: 0 21G<310 410> 200 100<168.835 310 410 551.165> 600 100<168.835 310 410 551.165> 780 20G<310 410>
VStem: 0 100<368.835 531.165> 310 100<0 200 300 600 700 800> 620 100<368.835 531.165>
CounterMasks: 1 0e
LayerCount: 2
Fore
SplineSet
240 200 m 2
 108 200 0 308 0 440 c 2
 0 460 l 2
 0 592 108 700 240 700 c 2
 310 700 l 1
 310 800 l 1
 410 800 l 1
 410 700 l 1
 480 700 l 2
 612 700 720 592 720 460 c 2
 720 440 l 2
 720 308 612 200 480 200 c 2
 410 200 l 1
 410 0 l 1
 310 0 l 1
 310 200 l 1
 240 200 l 2
100 440 m 2
 100 363 163 300 240 300 c 2
 310 300 l 1
 310 600 l 1
 240 600 l 2
 163 600 100 537 100 460 c 2
 100 440 l 2
410 300 m 1
 480 300 l 2
 557 300 620 363 620 440 c 2
 620 460 l 2
 620 537 557 600 480 600 c 2
 410 600 l 1
 410 300 l 1
EndSplineSet
EndChar

StartChar: "+ANUA"
Encoding: 1061 1061 134
Width: 600
VWidth: 1365
Flags: HW
HStem: 0 21G<0 112.751 360.747 480> 780 20G<2 112.751 360.747 480>
LayerCount: 2
Fore
SplineSet
0 0 m 1
 185 400 l 1
 0 800 l 1
 103 800 l 1
 240 519 l 1
 370 800 l 1
 480 800 l 1
 295 400 l 1
 480 0 l 1
 370 0 l 1
 240 281 l 1
 103 0 l 1
 0 0 l 1
EndSplineSet
EndChar

StartChar: "+ANYA"
Encoding: 1062 1062 135
Width: 700
VWidth: 1365
Flags: W
HStem: 0 100<100 380> 780 20G<0 100 380 480>
VStem: 0 100<100 800> 380 100<100 800> 480 100<-100 0>
LayerCount: 2
Fore
SplineSet
0 0 m 1xe8
 0 800 l 1
 100 800 l 1
 100 100 l 1
 380 100 l 1
 380 800 l 1
 480 800 l 1
 480 100 l 1xf0
 580 100 l 1
 580 -100 l 1
 480 -100 l 1
 480 0 l 1
 0 0 l 1xe8
EndSplineSet
EndChar

StartChar: "+ANcA"
Encoding: 1063 1063 136
Width: 600
VWidth: 1365
Flags: W
HStem: 0 21G<380 480> 300 100<168.835 380> 780 20G<0 100 380 480>
VStem: 0 100<468.835 800> 380 100<0 300 400 800>
LayerCount: 2
Fore
SplineSet
240 300 m 2
 108 300 0 408 0 540 c 2
 0 800 l 1
 100 800 l 1
 100 540 l 2
 100 463 163 400 240 400 c 2
 380 400 l 1
 380 800 l 1
 480 800 l 1
 480 0 l 1
 380 0 l 1
 380 300 l 1
 240 300 l 2
EndSplineSet
EndChar

StartChar: "+ANgA"
Encoding: 1064 1064 137
Width: 840
VWidth: 1365
Flags: W
HStem: 0 100<100 310 410 620> 780 20G<0 100 310 410 620 720>
VStem: 0 100<100 800> 310 100<100 800> 620 100<100 800>
CounterMasks: 1 38
LayerCount: 2
Fore
SplineSet
0 0 m 1
 0 800 l 1
 100 800 l 1
 100 100 l 1
 310 100 l 1
 310 800 l 1
 410 800 l 1
 410 100 l 1
 620 100 l 1
 620 800 l 1
 720 800 l 1
 720 0 l 1
 0 0 l 1
EndSplineSet
EndChar

StartChar: "+ANkA"
Encoding: 1065 1065 138
Width: 940
VWidth: 1365
Flags: W
HStem: 0 100<100 310 410 620> 780 20G<0 100 310 410 620 720>
VStem: 0 100<100 800> 310 100<100 800> 620 100<100 800> 720 100<-100 0>
LayerCount: 2
Fore
SplineSet
0 0 m 1xf4
 0 800 l 1
 100 800 l 1
 100 100 l 1
 310 100 l 1
 310 800 l 1
 410 800 l 1
 410 100 l 1
 620 100 l 1
 620 800 l 1
 720 800 l 1
 720 100 l 1xf8
 820 100 l 1
 820 -100 l 1
 720 -100 l 1
 720 0 l 1
 0 0 l 1xf4
EndSplineSet
EndChar

StartChar: "+ANoA"
Encoding: 1066 1066 139
Width: 840
VWidth: 1365
Flags: W
HStem: 0 100<340 551.165> 400 100<340 551.165> 700 100<0 240>
VStem: 240 100<100 400 500 700> 620 100<168.835 331.165>
LayerCount: 2
Fore
SplineSet
720 240 m 2
 720 108 612 0 480 0 c 2
 240 0 l 1
 240 700 l 1
 0 700 l 1
 0 800 l 1
 340 800 l 1
 340 500 l 1
 480 500 l 2
 612 500 720 392 720 260 c 2
 720 240 l 2
340 100 m 1
 480 100 l 2
 557 100 620 163 620 240 c 2
 620 260 l 2
 620 337 557 400 480 400 c 2
 340 400 l 1
 340 100 l 1
EndSplineSet
EndChar

StartChar: "+AN0A"
Encoding: 1069 1069 142
Width: 600
VWidth: 1365
Flags: W
HStem: 0 100<168.191 311.809> 400 100<190 380> 700 100<168.191 311.809>
VStem: 0 100<168.835 240 560 631.165> 380 100<168.835 400 500 631.165>
LayerCount: 2
Fore
SplineSet
480 240 m 2
 480 108 372 0 240 0 c 256
 108 0 0 108 0 240 c 1
 100 240 l 1
 100 163 163 100 240 100 c 256
 317 100 380 163 380 240 c 2
 380 400 l 1
 190 400 l 1
 190 500 l 1
 380 500 l 1
 380 560 l 2
 380 637 317 700 240 700 c 256
 163 700 100 637 100 560 c 1
 0 560 l 1
 0 692 108 800 240 800 c 256
 372 800 480 692 480 560 c 2
 480 240 l 2
EndSplineSet
EndChar

StartChar: "+AN4A"
Encoding: 1070 1070 143
Width: 840
VWidth: 1365
Flags: W
HStem: 0 100<408.191 551.809> 400 100<100 240> 700 100<408.191 551.809>
VStem: 0 100<0 400 500 800> 240 100<168.835 400 500 631.165> 620 100<168.835 631.165>
LayerCount: 2
Fore
SplineSet
480 0 m 259
 348 0 240 108 240 240 c 2
 240 400 l 1
 100 400 l 1
 100 0 l 1
 0 0 l 1
 0 800 l 1
 100 800 l 1
 100 500 l 1
 240 500 l 1
 240 560 l 2
 240 692 348 800 480 800 c 259
 612 800 720 692 720 560 c 2
 720 240 l 2
 720 108 612 0 480 0 c 259
340 240 m 2
 340 163 403 100 480 100 c 259
 557 100 620 163 620 240 c 2
 620 560 l 2
 620 637 557 700 480 700 c 259
 403 700 340 637 340 560 c 2
 340 240 l 2
EndSplineSet
EndChar

StartChar: "+AN8A"
Encoding: 1071 1071 144
Width: 600
VWidth: 1365
Flags: W
HStem: 0 21G<0 117.933 380 480> 300 100<243 380> 700 100<168.835 380>
VStem: 0 100<467.547 631.165> 380 100<0 300 400 700>
LayerCount: 2
Fore
SplineSet
143 320 m 1
 64 353 0 444 0 540 c 2
 0 560 l 2
 0 692 108 800 240 800 c 2
 480 800 l 1
 480 0 l 1
 380 0 l 1
 380 300 l 1
 243 300 l 1
 109 0 l 1
 0 0 l 1
 143 320 l 1
100 540 m 2
 100 463 163 400 240 400 c 2
 380 400 l 1
 380 700 l 1
 240 700 l 2
 163 700 100 637 100 560 c 2
 100 540 l 2
EndSplineSet
EndChar

StartChar: "+AOAA"
Encoding: 1072 1072 145
Width: 451
VWidth: 1365
Flags: W
HStem: 0 80<107.122 220.779> 249 80<108.318 249> 453 79<107.797 218.879>
VStem: 0 80<107.999 220.571 369 422.044> 249 80<108.945 249 329 421.27>
LayerCount: 2
Fore
SplineSet
0 369 m 1
 0 461 73 532 165 532 c 3
 255 532 329 459 329 369 c 2
 329 135 l 2
 329 109 337 99 347 89 c 1
 347 0 l 1
 312 11 294 26 279 46 c 1
 247 15 208 0 163 0 c 259
 73 0 0 75 0 165 c 3
 0 255 74 329 165 329 c 2
 249 329 l 1
 249 369 l 2
 249 415 209 453 164 453 c 3
 118 453 80 415 80 369 c 1
 0 369 l 1
80 164 m 3
 80 117 117 80 164 80 c 3
 211 80 249 117 249 165 c 2
 249 249 l 1
 159 249 l 2
 116 249 80 208 80 164 c 3
EndSplineSet
EndChar

StartChar: "+AOEA"
Encoding: 1073 1073 146
Width: 430
VWidth: 1365
Flags: HW
HStem: 0 80<108.55 221.166> 453 79<108.308 220.289> 680 80<108.318 228.031> 780 20G<237 329>
VStem: 0 80<108.318 425.324 516 651.055> 249 80<108.945 422.633>
LayerCount: 2
Fore
SplineSet
176 532 m 3
 257 532 329 453 329 369 c 2
 329 165 l 2
 329 74 255 0 165 0 c 3
 74 0 0 74 0 165 c 2
 0 595 l 2
 0 686 74 760 165 760 c 1
 205.746483297 760 230.81869914 776.519268193 242 800 c 1
 329 800 l 1
 312.162551685 735.807228298 251.311065713 680 165 680 c 1
 118 680 80 643 80 595 c 2
 80 516 l 1
 106 527 138 532 176 532 c 3
80 165 m 2
 80 118 117 80 164 80 c 3
 211 80 249 117 249 165 c 2
 249 369 l 2
 249 415 209 453 164 453 c 3
 118 453 80 415 80 369 c 2
 80 165 l 2
EndSplineSet
EndChar

StartChar: "+AOIA"
Encoding: 1074 1074 147
Width: 432
VWidth: 1365
Flags: HW
HStem: 0 80<108.631 220.689> 720 80<107.675 221.241>
VStem: 0 80<108.318 427.024 510 691.682> 249 80<108.318 425.717 579.632 692.003>
LayerCount: 2
Fore
SplineSet
0 165 m 2
 0 635 l 2
 0 726 74 800 165 800 c 3
 255 800 329 726 329 635 c 3
 329 590 319 557 300 538 c 9
 261 502 l 1
 300 466 l 17
 319 447 329 414 329 369 c 2
 329 165 l 2
 329 74 255 0 165 0 c 3
 74 0 0 74 0 165 c 2
80 165 m 2
 80 118 117 80 165 80 c 3
 212 80 249 118 249 165 c 2
 249 369 l 2
 249 415 211 455 165 455 c 3
 117 455 80 417 80 369 c 2
 80 165 l 2
249 636 m 3
 249 682 211 720 165 720 c 3
 116 720 80 684 80 635 c 2
 80 510 l 1
 196 557 l 2
 223 569 249 594 249 636 c 3
EndSplineSet
EndChar

StartChar: "+AOMA"
Encoding: 1075 1075 148
Width: 432
VWidth: 1365
Flags: HW
HStem: 0 80<108.08 233.623> 453 79<122.779 205.991>
VStem: 0 80<107.33 221.165> 34 80<403 441.641> 215 80<362.415 443.917> 249 80<97.151 165>
LayerCount: 2
Fore
SplineSet
170 80 m 1xe8
 230 80 249 110 249 165 c 1
 329 165 l 1
 329 74 255 0 165 0 c 1
 74 0 0 74 0 165 c 1xe4
 0 210 12 244 34 266 c 0
 56 288 75 304 92 312 c 2
 187 358 l 1
 201 366 215 380 215 404 c 1
 215 431 191 453 164 453 c 1
 136 453 114 431 114 403 c 1
 34 403 l 1xd8
 34 475 93 532 165 532 c 1
 235 532 295 473 295 403 c 1
 295 339 259 304 221 286 c 2
 127 240 l 2
 103 229 80 203 80 164 c 1
 80 111 112 80 170 80 c 1xe8
EndSplineSet
EndChar

StartChar: "+AOQA"
Encoding: 1076 1076 149
Width: 432
VWidth: 1365
Flags: W
HStem: 0 80<108.311 220.928> 453 79<108.053 220.221> 720 80<94.8861 218.057>
VStem: 0 80<108.318 423.033> 249 80<108.945 423.812 516 687.871>
LayerCount: 2
Fore
SplineSet
0 369 m 2
 0 454 71 532 153 532 c 3
 191 532 223 527 249 516 c 1
 249 635 l 2
 249 681 210 720 164 720 c 3
 141 720 121 712 105 695 c 1
 48 752 l 1
 80 784 119 800 164 800 c 3
 255 800 329 726 329 635 c 2
 329 165 l 2
 329 74 255 0 164 0 c 3
 74 0 0 74 0 165 c 2
 0 369 l 2
80 165 m 2
 80 118 117 80 164 80 c 3
 211 80 249 117 249 165 c 2
 249 369 l 2
 249 415 209 453 164 453 c 3
 118 453 80 415 80 369 c 2
 80 165 l 2
EndSplineSet
EndChar

StartChar: "+AOUA"
Encoding: 1077 1077 150
Width: 432
VWidth: 1365
Flags: W
HStem: 0 80<108.311 220.928> 227 80<80 249> 453 80<109.456 218.626>
VStem: 0 80<108.318 227 307 421.764> 249 80<108.945 165 307 421.377>
LayerCount: 2
Fore
SplineSet
0 165 m 2
 0 369 l 2
 0 460 73 533 164 533 c 3
 255 533 329 459 329 369 c 2
 329 227 l 1
 80 227 l 1
 80 165 l 2
 80 118 117 80 164 80 c 3
 211 80 249 117 249 165 c 1
 329 165 l 1
 329 74 255 0 164 0 c 3
 74 0 0 74 0 165 c 2
80 307 m 1
 249 307 l 1
 249 369 l 2
 249 415 209 453 164 453 c 3
 118 453 80 415 80 369 c 2
 80 307 l 1
EndSplineSet
EndChar

StartChar: "+AOYA"
Encoding: 1078 1078 151
Width: 592
VWidth: 1365
Flags: W
HStem: 0 21G<0 95.3146 205 285 393.685 489> 512 20G<0 103.351 205 285 385.541 489>
VStem: 205 80<0 267 347 532>
LayerCount: 2
Fore
SplineSet
205 347 m 1
 205 532 l 1
 285 532 l 1
 285 347 l 1
 291 347 l 1
 397 532 l 1
 489 532 l 1
 361 307 l 1
 489 0 l 1
 402 0 l 1
 291 267 l 1
 285 267 l 1
 285 0 l 1
 205 0 l 1
 205 267 l 1
 198 267 l 1
 87 0 l 1
 0 0 l 1
 128 307 l 1
 0 532 l 1
 92 532 l 1
 197 347 l 1
 205 347 l 1
EndSplineSet
EndChar

StartChar: "+AOcA"
Encoding: 1079 1079 152
Width: 432
VWidth: 1365
Flags: W
HStem: 0 80<108.62 221.213> 249 80<125 211.463> 453 79<118.07 211.927>
VStem: 0 79<112.129 165> 23 79<391 436.659> 227 80<345.094 438.324> 248 81<108.363 220.707>
LayerCount: 2
Fore
SplineSet
23 391 m 1xec
 23 470 85 532 165 532 c 259
 244 532 307 483 307 391 c 1xec
 307 353 294 320 268 293 c 1
 304 260 329 218 329 165 c 1
 329 56 255 0 165 0 c 3
 74 0 0 74 0 165 c 1
 79 165 l 1
 79 118 118 80 165 80 c 3
 212 80 248 117 248 165 c 257xf2
 248 211 211 249 165 249 c 2
 125 249 l 1
 125 329 l 1
 165 329 l 2
 198 329 227 358 227 391 c 1
 227 427 200 453 165 453 c 259
 130 453 102 426 102 391 c 1
 23 391 l 1xec
EndSplineSet
EndChar

StartChar: "+AOgA"
Encoding: 1080 1080 153
Width: 451
VWidth: 1365
Flags: W
HStem: 0 80<108.311 220.48> 512 20G<0 80 249 329>
VStem: 0 80<108.318 532> 249 80<108.945 532>
LayerCount: 2
Fore
SplineSet
0 165 m 2
 0 532 l 1
 80 532 l 1
 80 165 l 2
 80 118 117 80 164 80 c 0
 211 80 249 117 249 165 c 2
 249 532 l 1
 329 532 l 1
 329 151 l 2
 329 130 335 112 347 97 c 1
 347 0 l 1
 323 9 300 29 283 50 c 1
 250 17 212 0 164 0 c 0
 74 0 0 74 0 165 c 2
EndSplineSet
EndChar

StartChar: "+AOkA"
Encoding: 1081 1081 154
Width: 451
VWidth: 1365
Flags: W
HStem: 0 80<108.311 220.48> 512 20G<0 80 249 329> 613 80<120 209>
VStem: 0 80<108.318 532> 120 89<613 693> 249 80<108.945 532>
CounterMasks: 1 1c
LayerCount: 2
Fore
SplineSet
0 165 m 2
 0 532 l 1
 80 532 l 1
 80 165 l 2
 80 118 117 80 164 80 c 0
 211 80 249 117 249 165 c 2
 249 532 l 1
 329 532 l 1
 329 151 l 2
 329 130 335 112 347 97 c 1
 347 0 l 1
 323 9 300 29 283 50 c 1
 250 17 212 0 164 0 c 0
 74 0 0 74 0 165 c 2
120 613 m 1
 120 693 l 1
 209 693 l 1
 209 613 l 1
 120 613 l 1
EndSplineSet
EndChar

StartChar: "+AOoA"
Encoding: 1082 1082 155
Width: 432
VWidth: 1365
Flags: W
HStem: 0 21G<0 80 239.336 329> 512 20G<0 80 219.579 329>
VStem: 0 80<0 160 304 532>
LayerCount: 2
Fore
SplineSet
0 0 m 1
 0 532 l 1
 80 532 l 1
 80 304 l 1
 233 532 l 1
 329 532 l 1
 222 373 l 1
 329 0 l 1
 245 0 l 1
 164 286 l 1
 80 160 l 1
 80 0 l 1
 0 0 l 1
EndSplineSet
EndChar

StartChar: "+AOsA"
Encoding: 1083 1083 156
Width: 432
VWidth: 1365
Flags: W
HStem: 0 80<0 52.1894> 453 79<157.23 249>
VStem: 65 80<92.4237 440.856> 249 80<0 453>
LayerCount: 2
Fore
SplineSet
0 0 m 1
 0 80 l 1
 9 80 l 2
 39 80 65 106 65 136 c 2
 65 397 l 2
 65 473 125 532 201 532 c 2
 329 532 l 1
 329 0 l 1
 249 0 l 1
 249 453 l 1
 201 453 l 2
 171 453 145 428 145 397 c 2
 145 136 l 2
 145 61 83 0 9 0 c 2
 0 0 l 1
EndSplineSet
EndChar

StartChar: "+AOwA"
Encoding: 1084 1084 157
Width: 592
VWidth: 1365
Flags: W
HStem: 0 21G<0 80 409 489> 512 20G<0 103.547 385.528 489>
VStem: 0 80<0 379> 409 80<0 379>
LayerCount: 2
Fore
SplineSet
0 0 m 1
 0 532 l 1
 92 532 l 1
 245 267 l 1
 397 532 l 1
 489 532 l 1
 489 0 l 1
 409 0 l 1
 409 379 l 1
 245 105 l 1
 80 379 l 1
 80 0 l 1
 0 0 l 1
EndSplineSet
EndChar

StartChar: "+AO0A"
Encoding: 1085 1085 158
Width: 431
VWidth: 1365
Flags: W
HStem: 0 21G<0 80 248 328> 267 80<80 248> 512 20G<0 80 248 328>
VStem: 0 80<0 267 347 532> 248 80<0 267 347 532>
LayerCount: 2
Fore
SplineSet
0 0 m 1
 0 532 l 1
 80 532 l 1
 80 347 l 1
 248 347 l 1
 248 532 l 1
 328 532 l 1
 328 0 l 1
 248 0 l 1
 248 267 l 1
 80 267 l 1
 80 0 l 1
 0 0 l 1
EndSplineSet
EndChar

StartChar: "+AO4A"
Encoding: 1086 1086 159
Width: 432
VWidth: 1365
Flags: W
HStem: 0 80<108.311 220.928> 453 79<109.456 218.626>
VStem: 0 80<108.318 421.657> 249 80<108.945 421.27>
LayerCount: 2
Fore
SplineSet
0 165 m 2
 0 369 l 2
 0 460 73 532 164 532 c 3
 255 532 329 459 329 369 c 2
 329 165 l 2
 329 74 255 0 164 0 c 3
 74 0 0 74 0 165 c 2
80 165 m 2
 80 118 117 80 164 80 c 3
 211 80 249 117 249 165 c 2
 249 369 l 2
 249 415 209 453 164 453 c 3
 118 453 80 415 80 369 c 2
 80 165 l 2
EndSplineSet
EndChar

StartChar: "+AO8A"
Encoding: 1087 1087 160
Width: 451
VWidth: 1365
Flags: W
HStem: 0 21G<19 99 267 347> 453 79<128.307 236.392>
VStem: 19 80<0 423.406> 267 80<0 421.27>
LayerCount: 2
Fore
SplineSet
183 532 m 3
 273 532 347 459 347 369 c 2
 347 0 l 1
 267 0 l 1
 267 369 l 2
 267 414 228 453 183 453 c 3
 138 453 99 414 99 369 c 2
 99 0 l 1
 19 0 l 1
 19 383 l 2
 19 404 13 421 0 436 c 1
 0 532 l 1
 26 523 48 504 65 483 c 1
 98 516 136 532 183 532 c 3
EndSplineSet
EndChar

StartChar: "+APAA"
Encoding: 1088 1088 161
Width: 432
VWidth: 1365
Flags: W
HStem: -267 21G<0 80> 0 80<80 217.377> 453 79<80 221.159>
VStem: 0 80<-267 0 80 453> 249 80<112.129 424.134>
LayerCount: 2
Fore
SplineSet
0 -267 m 1
 0 532 l 1
 165 532 l 2
 255 532 329 459 329 369 c 2
 329 165 l 2
 329 74 255 0 165 0 c 2
 80 0 l 1
 80 -267 l 1
 0 -267 l 1
80 80 m 1
 165 80 l 2
 211 80 249 120 249 165 c 2
 249 369 l 2
 249 412 213 453 169 453 c 2
 80 453 l 1
 80 80 l 1
EndSplineSet
EndChar

StartChar: "+APEA"
Encoding: 1089 1089 162
Width: 432
VWidth: 1365
Flags: W
HStem: 0 80<108.311 220.928> 453 79<109.456 218.626>
VStem: 0 80<108.318 421.657> 249 80<108.945 165 369 421.27>
LayerCount: 2
Fore
SplineSet
0 165 m 2
 0 369 l 2
 0 460 73 532 164 532 c 3
 255 532 329 459 329 369 c 1
 249 369 l 1
 249 415 209 453 164 453 c 3
 118 453 80 415 80 369 c 2
 80 165 l 2
 80 118 117 80 164 80 c 3
 211 80 249 117 249 165 c 1
 329 165 l 1
 329 74 255 0 164 0 c 3
 74 0 0 74 0 165 c 2
EndSplineSet
EndChar

StartChar: "+APIA"
Encoding: 1090 1090 163
Width: 592
VWidth: 1365
Flags: W
HStem: 0 21G<25 105 217 297 409 489> 453 79<117.074 203.187 309.444 394.681>
VStem: 0 66<495 513.839> 25 80<0 441.078> 217 80<0 439.59> 409 80<0 437.68>
LayerCount: 2
Fore
SplineSet
161 532 m 3xec
 199 532 231 520 257 494 c 1
 283 520 315 532 353 532 c 259
 429 532 489 473 489 397 c 2
 489 0 l 1
 409 0 l 1
 409 397 l 2
 409 426 382 453 353 453 c 3
 323 453 297 428 297 397 c 2
 297 0 l 1
 217 0 l 1
 217 397 l 2
 217 426 190 453 161 453 c 3
 131 453 105 428 105 397 c 2
 105 0 l 1
 25 0 l 1
 25 401 l 2xdc
 25 419 14 437 0 447 c 1
 0 532 l 1
 25 527 46 516 65 497 c 0
 66 496 66 496 66 495 c 1
 92 520 124 532 161 532 c 3xec
EndSplineSet
EndChar

StartChar: "+APMA"
Encoding: 1091 1091 164
Width: 432
VWidth: 1365
Flags: W
HStem: -267 80<40 83.358> 512 20G<0 86.5479 242.507 329>
VStem: 0 329
LayerCount: 2
Fore
SplineSet
40 -267 m 1
 40 -187 l 1
 67 -187 90 -167 95 -143 c 2
 123 0 l 1
 0 532 l 1
 82 532 l 1
 165 167 l 1
 247 532 l 1
 329 532 l 1
 175 -152 l 1
 164 -216 110 -267 40 -267 c 1
EndSplineSet
EndChar

StartChar: "+APQA"
Encoding: 1092 1092 165
Width: 592
VWidth: 1365
Flags: W
HStem: -267 21G<205 285> 0 80<108.393 204.414 285.586 380.689> 373 80<109.928 204.413 285.563 377.377> 512 20G<205 285>
VStem: 0 80<108.318 341.764> 205 80<-267 5 81.8064 371.194 449 532> 409 80<108.318 341.377>
LayerCount: 2
Fore
SplineSet
0 165 m 2
 0 289 l 2
 0 380 73 453 164 453 c 0
 178 453 192 452 205 449 c 1
 205 532 l 1
 285 532 l 1
 285 449 l 1
 296 451 307 453 318 453 c 2
 325 453 l 2
 415 453 489 379 489 289 c 2
 489 165 l 2
 489 74 415 0 325 0 c 0
 311 0 298 2 285 5 c 1
 285 -267 l 1
 205 -267 l 1
 205 5 l 1
 192 2 179 0 164 0 c 0
 74 0 0 74 0 165 c 2
80 165 m 2
 80 118 117 80 165 80 c 0
 180 80 193 83 205 90 c 1
 205 363 l 1
 193 370 180 373 165 373 c 0
 120 373 80 335 80 289 c 2
 80 165 l 2
325 80 m 0
 372 80 409 118 409 165 c 2
 409 289 l 2
 409 334 370 373 325 373 c 0
 310 373 297 370 285 364 c 1
 285 89 l 1
 297 83 310 80 325 80 c 0
EndSplineSet
EndChar

StartChar: "+APUA"
Encoding: 1093 1093 166
Width: 432
VWidth: 1365
Flags: W
HStem: 0 21G<0 97.1124 232.006 329> 512 20G<0 97.1667 231.952 329>
VStem: 0 329
LayerCount: 2
Fore
SplineSet
0 0 m 1
 116 267 l 1
 0 532 l 1
 88 532 l 1
 165 364 l 1
 241 532 l 1
 329 532 l 1
 208 267 l 1
 329 0 l 1
 241 0 l 1
 165 169 l 1
 88 0 l 1
 0 0 l 1
EndSplineSet
EndChar

StartChar: "+APYA"
Encoding: 1094 1094 167
Width: 512
VWidth: 1365
Flags: HW
HStem: 0 80<107.362 219.246> 512 20G<0 80 249 329>
VStem: 0 80<108.318 532> 249 80<109.758 532> 328 81<-80 -7.06256>
LayerCount: 2
Fore
SplineSet
0 165 m 2xe8
 0 532 l 1
 80 532 l 1
 80 165 l 2
 80 117 116 80 164 80 c 3
 210 80 249 119 249 165 c 2
 249 532 l 1
 328 532 l 1
 328 165 l 2xf0
 328 142 325 120 316 99 c 1
 371 61 409 -6 409 -80 c 1
 328 -80 l 1
 328 -32 302 10 267 35 c 1
 238 12 203 0 164 0 c 3
 74 0 0 74 0 165 c 2xe8
EndSplineSet
EndChar

StartChar: "+APcA"
Encoding: 1095 1095 168
Width: 432
VWidth: 1365
Flags: W
HStem: 0 21G<249 329> 187 80<107.841 249> 512 20G<0 80 249 329>
VStem: 0 80<295.866 532> 249 80<0 187 267 532>
LayerCount: 2
Fore
SplineSet
0 351 m 2
 0 532 l 1
 80 532 l 1
 80 351 l 2
 80 308 116 267 160 267 c 2
 249 267 l 1
 249 532 l 1
 329 532 l 1
 329 0 l 1
 249 0 l 1
 249 187 l 1
 164 187 l 2
 74 187 0 261 0 351 c 2
EndSplineSet
EndChar

StartChar: "+APgA"
Encoding: 1096 1096 169
Width: 592
VWidth: 1365
Flags: HW
HStem: 0 80<92.1727 179.71 284.29 372.081> 512 20G<0 80 192 272 384 464>
VStem: 0 80<92.4237 532> 192 80<91.9218 532> 384 80<91.9218 532>
CounterMasks: 1 38
LayerCount: 2
Fore
SplineSet
0 136 m 2
 0 532 l 1
 80 532 l 1
 80 136 l 2
 80 105 105 80 136 80 c 3
 167 80 192 105 192 136 c 2
 192 532 l 1
 272 532 l 1
 272 136 l 2
 272 105 297 80 328 80 c 3
 359 80 384 105 384 136 c 2
 384 532 l 1
 464 532 l 1
 464 133 l 2
 464 115 475 96 489 86 c 1
 489 0 l 1
 463 5 442 19 423 38 c 1
 397 13 365 0 328 0 c 3
 259 0 232 39.23046875 232 49 c 1
 232 39.23046875 210 0 136 0 c 259
 61 0 0 61 0 136 c 2
EndSplineSet
EndChar

StartChar: "+APkA"
Encoding: 1097 1097 170
Width: 672
VWidth: 1365
Flags: W
HStem: 0 80<92.1727 179.71 284.29 372.081> 512 20G<0 80 192 272 384 464>
VStem: 0 80<92.4237 532> 192 80<91.9218 532> 384 80<108.422 532> 488 81<-80 -7.99683>
LayerCount: 2
Fore
SplineSet
0 136 m 2
 0 532 l 1
 80 532 l 1
 80 136 l 2
 80 105 105 80 136 80 c 0
 167 80 192 105 192 136 c 2
 192 532 l 1
 272 532 l 1
 272 136 l 2
 272 105 297 80 328 80 c 256
 359 80 384 105 384 136 c 2
 384 532 l 1
 464 532 l 1
 464 136 l 2
 464 126 463 117 461 108 c 1
 523 73 569 0 569 -80 c 1
 488 -80 l 1
 488 -29 460 13 423 38 c 1
 397 13 365 0 328 0 c 0
 290 0 258 13 232 39 c 1
 206 13 174 0 136 0 c 256
 61 0 0 61 0 136 c 2
EndSplineSet
EndChar

StartChar: "+APoA"
Encoding: 1098 1098 171
Width: 512
VWidth: 1365
Flags: W
HStem: 0 80<160 297.377> 267 80<160 297.377> 453 79<0 80>
VStem: 0 160<453 532> 80 80<80 267 347 453> 329 80<112.129 234.871>
LayerCount: 2
Fore
SplineSet
0 453 m 1xf4
 0 532 l 1
 160 532 l 1xf4
 160 347 l 1
 245 347 l 2
 335 347 409 273 409 182 c 2
 409 165 l 2
 409 74 335 0 245 0 c 2
 80 0 l 1
 80 453 l 1xec
 0 453 l 1xf4
160 80 m 1xec
 245 80 l 2
 291 80 329 120 329 165 c 2
 329 182 l 2
 329 227 291 267 245 267 c 2
 160 267 l 1
 160 80 l 1xec
EndSplineSet
EndChar

StartChar: "+APsA"
Encoding: 1099 1099 172
Width: 592
VWidth: 1365
Flags: W
HStem: 0 80<80 217.377> 267 80<80 217.377> 512 20G<0 80 409 489>
VStem: 0 80<80 267 347 532> 249 80<112.129 234.871> 409 80<0 532>
LayerCount: 2
Fore
SplineSet
0 0 m 1
 0 532 l 1
 80 532 l 1
 80 347 l 1
 165 347 l 2
 255 347 329 273 329 182 c 2
 329 165 l 2
 329 74 255 0 165 0 c 2
 0 0 l 1
80 80 m 1
 165 80 l 2
 211 80 249 120 249 165 c 2
 249 182 l 2
 249 227 211 267 165 267 c 2
 80 267 l 1
 80 80 l 1
409 0 m 1
 409 532 l 1
 489 532 l 1
 489 0 l 1
 409 0 l 1
EndSplineSet
EndChar

StartChar: "+APwA"
Encoding: 1100 1100 173
Width: 432
VWidth: 1365
Flags: W
HStem: 0 80<80 217.377> 267 80<80 217.377> 512 20G<0 80>
VStem: 0 80<80 267 347 532> 249 80<112.129 234.871>
LayerCount: 2
Fore
SplineSet
0 0 m 1
 0 532 l 1
 80 532 l 1
 80 347 l 1
 165 347 l 2
 255 347 329 273 329 182 c 2
 329 165 l 2
 329 74 255 0 165 0 c 2
 0 0 l 1
80 80 m 1
 165 80 l 2
 211 80 249 120 249 165 c 2
 249 182 l 2
 249 227 211 267 165 267 c 2
 80 267 l 1
 80 80 l 1
EndSplineSet
EndChar

StartChar: "+AP0A"
Encoding: 1101 1101 174
Width: 432
VWidth: 1365
Flags: W
HStem: 0 80<108.55 221.166> 227 80<125 249> 453 79<107.797 218.879>
VStem: 0 80<108.318 165 369 422.044> 249 80<108.945 227 307 421.27>
LayerCount: 2
Fore
SplineSet
0 369 m 1
 0 461 73 532 165 532 c 3
 255 532 329 459 329 369 c 2
 329 165 l 2
 329 74 255 0 165 0 c 3
 74 0 0 74 0 165 c 1
 80 165 l 1
 80 118 117 80 164 80 c 3
 211 80 249 117 249 165 c 2
 249 227 l 1
 125 227 l 1
 125 307 l 1
 249 307 l 1
 249 369 l 2
 249 415 209 453 164 453 c 3
 118 453 80 415 80 369 c 1
 0 369 l 1
EndSplineSet
EndChar

StartChar: "+AP4A"
Encoding: 1102 1102 175
Width: 592
VWidth: 1365
Flags: W
HStem: 0 80<268.311 380.928> 267 80<80 160> 453 79<269.456 378.626>
VStem: 0 80<0 267 347 532> 160 80<108.318 267 347 421.657> 409 80<108.945 421.27>
LayerCount: 2
Fore
SplineSet
0 0 m 1
 0 532 l 1
 80 532 l 1
 80 347 l 1
 160 347 l 1
 160 369 l 2
 160 460 233 532 324 532 c 3
 415 532 489 459 489 369 c 2
 489 165 l 2
 489 74 415 0 324 0 c 3
 234 0 160 74 160 165 c 2
 160 267 l 1
 80 267 l 1
 80 0 l 1
 0 0 l 1
240 165 m 2
 240 118 277 80 324 80 c 3
 371 80 409 117 409 165 c 2
 409 369 l 2
 409 415 369 453 324 453 c 3
 278 453 240 415 240 369 c 2
 240 165 l 2
EndSplineSet
EndChar

StartChar: "+AP8A"
Encoding: 1103 1103 176
Width: 432
VWidth: 1365
Flags: W
HStem: 0 21G<0 98.3048 249 329> 187 80<176 249> 453 79<107.441 249>
VStem: 0 80<295.866 425.324> 249 80<0 187 267 453>
LayerCount: 2
Fore
SplineSet
95 201 m 1
 43 226 0 285 0 351 c 2
 0 369 l 2
 0 460 73 532 164 532 c 2
 329 532 l 1
 329 0 l 1
 249 0 l 1
 249 187 l 1
 176 187 l 1
 89 0 l 1
 0 0 l 1
 95 201 l 1
80 351 m 2
 80 308 116 267 160 267 c 2
 249 267 l 1
 249 453 l 1
 164 453 l 2
 117 453 80 415 80 369 c 2
 80 351 l 2
EndSplineSet
EndChar

StartChar: "+ALgA"
Encoding: 1105 1105 177
Width: 432
VWidth: 1365
Flags: HW
HStem: 0 80<108.311 220.928> 227 80<80 249> 453 79<109.456 218.626>
VStem: 0 80<108.318 227 307 421.657> 249 80<108.945 165 307 421.27>
LayerCount: 2
Fore
SplineSet
0 165 m 2
 0 369 l 2
 0 460 73 532 164 532 c 3
 255 532 329 459 329 369 c 2
 329 227 l 1
 80 227 l 1
 80 165 l 2
 80 118 117 80 164 80 c 3
 211 80 249 117 249 165 c 1
 329 165 l 1
 329 74 255 0 164 0 c 3
 74 0 0 74 0 165 c 2
80 307 m 1
 249 307 l 1
 249 369 l 2
 249 415 209 453 164 453 c 3
 118 453 80 415 80 369 c 2
 80 307 l 1
EndSplineSet
EndChar
